<svg width="18" height="18" viewBox="0 0 18 18" fill="none" xmlns="http://www.w3.org/2000/svg"><g clip-path="url(#a)"><path d="M8.248 3H1.5v13.5h13.498V9.75" stroke="currentColor" stroke-width="1.4" stroke-linecap="square"/><path d="m13.875 1.875.495.495-.495-.495ZM15 1.41v-.7.7Zm1.125 2.716-.495-.495.495.495ZM9 11.25l.235.66a.7.7 0 0 0 .26-.165L9 11.25ZM6.75 9l-.495-.495a.7.7 0 0 0-.164.26L6.75 9ZM5.699 12.43l-.236-.66.236.66Zm-.128-.128-.66-.235.66.235Zm8.799-9.93a.891.891 0 0 1 .63-.262V.71c-.608 0-1.19.242-1.62.671l.99.99Zm.63-.262c.236 0 .463.094.63.261l.99-.99A2.291 2.291 0 0 0 15 .71v1.4Zm.63.261a.891.891 0 0 1 .261.63h1.4c0-.607-.241-1.19-.671-1.62l-.99.99Zm.261.63a.891.891 0 0 1-.261.63l.99.99c.43-.43.671-1.012.671-1.62h-1.4Zm-.261.63-7.125 7.125.99.99L16.62 4.62l-.99-.99Zm-6.865 6.96-3.302 1.18.471 1.318 3.301-1.179-.47-1.318ZM6.23 12.538l1.18-3.301-1.32-.471-1.178 3.3 1.318.472Zm1.015-3.042L14.37 2.37l-.99-.99-7.125 7.125.99.99ZM5.463 11.77a.6.6 0 0 1 .767.767l-1.318-.471a.8.8 0 0 0 1.022 1.022l-.47-1.318Z" fill="currentColor"/></g><defs><clipPath id="a"><path fill="#fff" d="M0 0h18v18H0z"/></clipPath></defs></svg>
