<svg xmlns="http://www.w3.org/2000/svg" width="24" height="24" fill="none"><path fill="currentColor" fill-rule="evenodd" d="M12.002.9C5.703.9.602 5.992.602 12.28c0 5.029 3.268 9.29 7.796 10.799.566.104.776-.245.776-.552 0-.273-.007-.985-.014-1.935-3.17.684-3.842-1.523-3.842-1.523-.518-1.313-1.266-1.663-1.266-1.663-1.036-.705.077-.691.077-.691 1.14.084 1.75 1.173 1.75 1.173 1.014 1.74 2.665 1.237 3.316.943.105-.733.4-1.236.721-1.522-2.533-.287-5.193-1.265-5.193-5.624 0-1.243.441-2.256 1.176-3.052-.119-.287-.51-1.446.112-3.011 0 0 .959-.307 3.135 1.167.91-.252 1.883-.378 2.856-.385.965 0 1.945.133 2.855.385 2.176-1.474 3.135-1.167 3.135-1.167.623 1.565.23 2.724.112 3.01.728.797 1.169 1.81 1.169 3.053 0 4.373-2.667 5.33-5.207 5.617.406.349.777 1.047.777 2.11 0 1.522-.014 2.745-.014 3.122 0 .307.203.656.784.545 4.527-1.51 7.789-5.77 7.789-10.793C23.402 5.992 18.3.9 12.002.9Z" clip-rule="evenodd"/></svg>
