<svg width="547" height="270" viewBox="0 0 547 270" fill="none" xmlns="http://www.w3.org/2000/svg">
<path d="M80.46 27L2.43 151.2V178.47H98.28V216H129.6V178.47H160.92V150.12H129.6V27H80.46ZM95.04 54.27H98.28V150.12H35.1L95.04 54.27Z" fill="currentColor"/>
<path d="M464.46 27L386.43 151.2V178.47H482.28V216H513.6V178.47H544.92V150.12H513.6V27H464.46ZM479.04 54.27H482.28V150.12H419.1L479.04 54.27Z" fill="currentColor"/>
<circle cx="273.5" cy="121.5" r="86.0625" stroke="#0066F5" stroke-width="16.875"/>
<path d="M352.812 121.5C352.812 135.171 344.667 148.125 330.315 157.884C315.991 167.624 295.919 173.812 273.5 173.812C251.081 173.812 231.009 167.624 216.685 157.884C202.333 148.125 194.188 135.171 194.188 121.5C194.188 107.829 202.333 94.8748 216.685 85.1161C231.009 75.3755 251.081 69.1875 273.5 69.1875C295.919 69.1875 315.991 75.3755 330.315 85.1161C344.667 94.8748 352.812 107.829 352.812 121.5Z" stroke="#0066F5" stroke-width="10.125"/>
<path d="M348.938 120.625C348.938 121.367 348.39 123.151 344.761 125.653C341.288 128.048 335.932 130.407 328.858 132.47C314.778 136.577 295.027 139.188 273 139.188C250.973 139.188 231.222 136.577 217.142 132.47C210.068 130.407 204.712 128.048 201.239 125.653C197.61 123.151 197.062 121.367 197.062 120.625C197.062 119.883 197.61 118.099 201.239 115.597C204.712 113.202 210.068 110.843 217.142 108.78C231.222 104.673 250.973 102.062 273 102.062C295.027 102.062 314.778 104.673 328.858 108.78C335.932 110.843 341.288 113.202 344.761 115.597C348.39 118.099 348.938 119.883 348.938 120.625Z" stroke="#0066F5" stroke-width="10.125"/>
</svg>
