<svg width="541" height="189" viewBox="0 0 541 189" fill="none" xmlns="http://www.w3.org/2000/svg">
<path d="M94.4284 189V150.66H0V114.21L68.7979 0H125.725V122.58H157.291V150.66H125.725V189H94.4284ZM30.2171 122.58H94.4284V19.98H89.8419L30.2171 118.53V122.58Z" fill="currentColor"/>
<path d="M478.139 189V150.66H383.711V114.21L452.509 0H509.436V122.58H541.002V150.66H509.436V189H478.139ZM413.928 122.58H478.139V19.98H473.553L413.928 118.53V122.58Z" fill="currentColor"/>
<path d="M350.419 94.5C350.419 142.037 311.914 180.562 264.428 180.562C216.943 180.562 178.438 142.037 178.438 94.5C178.438 46.963 216.943 8.4375 264.428 8.4375C311.914 8.4375 350.419 46.963 350.419 94.5Z" stroke="" stroke-width="16.875"/>
<path d="M343.677 94.5C343.677 108.173 335.536 121.127 321.197 130.885C306.884 140.625 286.829 146.812 264.428 146.812C242.028 146.812 221.972 140.625 207.66 130.885C193.32 121.127 185.18 108.173 185.18 94.5C185.18 80.8272 193.32 67.873 207.66 58.1151C221.972 48.3751 242.028 42.1875 264.428 42.1875C286.829 42.1875 306.884 48.3751 321.197 58.1151C335.536 67.873 343.677 80.8272 343.677 94.5Z" stroke="" stroke-width="10.125"/>
<path d="M339.815 93.625C339.815 94.3684 339.267 96.1523 335.641 98.6543C332.172 101.049 326.821 103.408 319.752 105.471C305.683 109.577 285.949 112.188 263.939 112.188C241.929 112.188 222.194 109.577 208.125 105.471C201.057 103.408 195.705 101.049 192.236 98.6543C188.611 96.1523 188.062 94.3684 188.062 93.625C188.062 92.8816 188.611 91.0977 192.236 88.5957C195.705 86.2015 201.057 83.8424 208.125 81.7793C222.194 77.6727 241.929 75.0625 263.939 75.0625C285.949 75.0625 305.683 77.6727 319.752 81.7793C326.821 83.8424 332.172 86.2015 335.641 88.5957C339.267 91.0977 339.815 92.8816 339.815 93.625Z" stroke="" stroke-width="10.125"/>
</svg>
