<svg width="110" height="86" viewBox="0 0 110 86" fill="currentColor" xmlns="http://www.w3.org/2000/svg">
<path d="M50.966 60.8293C50.966 47.0453 40.1732 37.1568 25.483 37.1568H21.2858V33.561C21.2858 24.2718 26.3824 18.5784 36.2758 18.5784H46.7688V0H37.475C11.6922 0 0 15.2822 0 37.4564V59.9303C0 75.8118 10.7928 86 25.483 86C40.1732 86 50.966 75.8118 50.966 60.8293ZM110 60.8293C110 47.0453 99.507 37.1568 84.8168 37.1568H80.3198V33.561C80.3198 24.2718 85.4164 18.5784 95.3098 18.5784H105.803V0H96.509C71.026 0 59.034 15.2822 59.034 37.4564V59.9303C59.034 75.8118 69.8268 86 84.517 86C99.507 86 110 75.8118 110 60.8293Z"/>
</svg>
