<svg xmlns="http://www.w3.org/2000/svg" width="42" height="14" fill="none"><rect width="13.4" height="13.4" x=".3" y=".3" fill="#3B3B44" stroke="#61616B" stroke-width=".6" rx="1.7"/><g stroke="#AFAFB6" stroke-linecap="square" stroke-miterlimit="10" stroke-width=".6" clip-path="url(#a)"><path d="M8.507 5.842H5.84V8.51h2.667V5.842ZM3.84 4.842c0-.55.45-1 1-1s1 .45 1 1v1h-1c-.55 0-1-.45-1-1ZM10.504 4.842c0-.55-.45-1-1-1s-1 .45-1 1v1h1c.55 0 1-.45 1-1Z"/><path d="M10.504 9.509c0 .55-.45 1-1 1s-1-.45-1-1v-1h1c.55 0 1 .45 1 1ZM3.84 9.509c0 .55.45 1 1 1s1-.45 1-1v-1h-1c-.55 0-1 .45-1 1Z"/></g><rect width="13.4" height="13.4" x="28.3" y=".3" fill="#3B3B44" stroke="#61616B" stroke-width=".6" rx="1.7"/><path fill="#AFAFB6" d="m33.838 8.062.924-1.042.364-.36 2.589-2.86h-.98l-2.74 3.109h-.2l.043 1.153Zm-.694 2.138h.781V3.8h-.78v6.4Zm3.79 0h1.01l-2.81-3.744-.537.555 2.337 3.189Z"/><path fill="#61616B" d="M18 7.45h6v-.9h-6v.9ZM20.54 10h.92V4h-.92v6Z"/><defs><clipPath id="a"><path fill="#fff" d="M3 3h8v8H3z"/></clipPath></defs></svg>