<svg width="20" height="20" viewBox="0 0 20 20" fill="none" xmlns="http://www.w3.org/2000/svg">
<g clip-path="url(#clip0_5514_6009)">
<path d="M17.7833 18.9C18.0957 19.2124 18.6022 19.2124 18.9146 18.9C19.2271 18.5876 19.2271 18.081 18.9146 17.7686L17.7833 18.9ZM15.5813 14.4353L15.0156 13.8696L13.8843 15.001L14.4499 15.5667L15.5813 14.4353ZM18.9146 17.7686L15.5813 14.4353L14.4499 15.5667L17.7833 18.9L18.9146 17.7686Z" fill="#0B0B0E"/>
<path d="M8.33854 15.0003C12.0204 15.0003 15.0052 12.0156 15.0052 8.33366C15.0052 4.65176 12.0204 1.66699 8.33854 1.66699C4.65664 1.66699 1.67188 4.65176 1.67188 8.33366C1.67188 12.0156 4.65664 15.0003 8.33854 15.0003Z" stroke="#0B0B0E" stroke-width="1.6" stroke-miterlimit="10" stroke-linecap="round" stroke-linejoin="round"/>
</g>
<defs>
<clipPath id="clip0_5514_6009">
<rect width="20" height="20" fill="white"/>
</clipPath>
</defs>
</svg>
