<svg width="800" height="75" viewBox="0 0 800 75" fill="none" xmlns="http://www.w3.org/2000/svg">
<rect x="0.5" y="0.5" width="799" height="74" rx="3.5" stroke="#DFDFE2"/>
<mask id="mask0_5950_2190" style="mask-type:alpha" maskUnits="userSpaceOnUse" x="0" y="0" width="800" height="75">
<rect x="0.5" y="0.5" width="799" height="74" rx="3.5" fill="white" stroke="#DFDFE2"/>
</mask>
<g mask="url(#mask0_5950_2190)">
<mask id="mask1_5950_2190" style="mask-type:alpha" maskUnits="userSpaceOnUse" x="451" y="0" width="451" height="226">
<rect x="451" width="451" height="225.5" fill="#D9D9D9"/>
<rect x="451.37" y="0.370139" width="450.26" height="224.76" stroke="#0B0B0E" stroke-opacity="0.05" stroke-width="0.740278"/>
</mask>
<g mask="url(#mask1_5950_2190)">
<path d="M676.5 74.627L648.313 -20.0432L620.125 74.627L591.938 -20.0432L563.75 74.6269L535.563 -20.0432L507.375 74.6269L479.188 -20.0432L451 74.6269" stroke="#0B0B0E" stroke-opacity="0.05" stroke-width="0.740278"/>
<path d="M676.5 108.438L648.313 13.7674L620.125 108.437L591.938 13.7674L563.75 108.437L535.563 13.7674L507.375 108.437L479.188 13.7674L451 108.437" stroke="#0B0B0E" stroke-opacity="0.05" stroke-width="0.740278"/>
<path d="M676.5 142.246L648.313 47.576L620.125 142.246L591.938 47.576L563.75 142.246L535.563 47.576L507.375 142.246L479.188 47.576L451 142.246" stroke="#0B0B0E" stroke-opacity="0.05" stroke-width="0.740278"/>
<path d="M902 74.626L873.813 -20.0441L845.625 74.626L817.438 -20.0441L789.25 74.626L761.063 -20.0442L732.875 74.626L704.688 -20.0442L676.5 74.626" stroke="#0B0B0E" stroke-opacity="0.05" stroke-width="0.740278"/>
<path d="M902 108.438L873.813 13.7674L845.625 108.437L817.438 13.7674L789.25 108.437L761.063 13.7674L732.875 108.437L704.688 13.7674L676.5 108.437" stroke="#0B0B0E" stroke-opacity="0.05" stroke-width="0.740278"/>
<path d="M902 142.245L873.813 47.575L845.625 142.245L817.438 47.575L789.25 142.245L761.063 47.575L732.875 142.245L704.688 47.575L676.5 142.245" stroke="#0B0B0E" stroke-opacity="0.05" stroke-width="0.740278"/>
</g>
<mask id="mask2_5950_2190" style="mask-type:alpha" maskUnits="userSpaceOnUse" x="0" y="0" width="451" height="226">
<rect width="451" height="225.5" fill="#D9D9D9"/>
<rect x="0.370139" y="0.370139" width="450.26" height="224.76" stroke="#0B0B0E" stroke-opacity="0.05" stroke-width="0.740278"/>
</mask>
<g mask="url(#mask2_5950_2190)">
<path d="M225.5 74.627L197.313 -20.0432L169.125 74.627L140.938 -20.0432L112.75 74.6269L84.5626 -20.0432L56.3751 74.6269L28.1876 -20.0432L0.000156939 74.6269" stroke="#0B0B0E" stroke-opacity="0.05" stroke-width="0.740278"/>
<path d="M225.5 108.438L197.313 13.7674L169.125 108.437L140.938 13.7674L112.75 108.437L84.5626 13.7674L56.3751 108.437L28.1876 13.7674L0.000156939 108.437" stroke="#0B0B0E" stroke-opacity="0.05" stroke-width="0.740278"/>
<path d="M225.5 142.246L197.313 47.576L169.125 142.246L140.938 47.576L112.75 142.246L84.5626 47.576L56.3751 142.246L28.1876 47.576L0.000156939 142.246" stroke="#0B0B0E" stroke-opacity="0.05" stroke-width="0.740278"/>
<path d="M451 74.626L422.813 -20.0441L394.625 74.626L366.438 -20.0441L338.25 74.626L310.063 -20.0442L281.875 74.626L253.688 -20.0442L225.5 74.626" stroke="#0B0B0E" stroke-opacity="0.05" stroke-width="0.740278"/>
<path d="M451 108.438L422.813 13.7674L394.625 108.437L366.438 13.7674L338.25 108.437L310.063 13.7674L281.875 108.437L253.688 13.7674L225.5 108.437" stroke="#0B0B0E" stroke-opacity="0.05" stroke-width="0.740278"/>
<path d="M451 142.245L422.813 47.575L394.625 142.245L366.438 47.575L338.25 142.245L310.063 47.575L281.875 142.245L253.688 47.575L225.5 142.245" stroke="#0B0B0E" stroke-opacity="0.05" stroke-width="0.740278"/>
</g>
<path d="M195.5 36.275V34.475H206V36.275H195.5ZM195.5 40.025V38.225H206V40.025H195.5Z" fill="#0066F5"/>
<path d="M398.8 42.5V38.15H394.5V36.35H398.8V32H400.7V36.35H405V38.15H400.7V42.5H398.8Z" fill="#0066F5"/>
<g filter="url(#filter0_d_5950_2190)">
<path d="M20 22C20 20.8954 20.8954 20 22 20H181C182.105 20 183 20.8954 183 22V53C183 54.1046 182.105 55 181 55H22C20.8954 55 20 54.1046 20 53V22Z" fill="white"/>
<path d="M22 20.5H181C181.828 20.5 182.5 21.1716 182.5 22V53C182.5 53.8284 181.828 54.5 181 54.5H22C21.1716 54.5 20.5 53.8284 20.5 53V22C20.5 21.1716 21.1716 20.5 22 20.5Z" stroke="#0066F5"/>
</g>
<path d="M78.5384 42.144C77.9784 42.144 77.4584 42.04 76.9784 41.832C76.4984 41.616 76.0904 41.324 75.7544 40.956C75.4184 40.588 75.1704 40.164 75.0104 39.684L76.2104 39.18C76.4264 39.732 76.7424 40.156 77.1584 40.452C77.5744 40.748 78.0544 40.896 78.5984 40.896C78.9184 40.896 79.1984 40.848 79.4384 40.752C79.6784 40.648 79.8624 40.504 79.9904 40.32C80.1264 40.136 80.1944 39.924 80.1944 39.684C80.1944 39.356 80.1024 39.096 79.9184 38.904C79.7344 38.712 79.4624 38.56 79.1024 38.448L77.4224 37.92C76.7504 37.712 76.2384 37.396 75.8864 36.972C75.5344 36.54 75.3584 36.036 75.3584 35.46C75.3584 34.956 75.4824 34.516 75.7304 34.14C75.9784 33.756 76.3184 33.456 76.7504 33.24C77.1904 33.024 77.6904 32.916 78.2504 32.916C78.7864 32.916 79.2744 33.012 79.7144 33.204C80.1544 33.388 80.5304 33.644 80.8424 33.972C81.1624 34.3 81.3944 34.68 81.5384 35.112L80.3624 35.628C80.1864 35.156 79.9104 34.792 79.5344 34.536C79.1664 34.28 78.7384 34.152 78.2504 34.152C77.9544 34.152 77.6944 34.204 77.4704 34.308C77.2464 34.404 77.0704 34.548 76.9424 34.74C76.8224 34.924 76.7624 35.14 76.7624 35.388C76.7624 35.676 76.8544 35.932 77.0384 36.156C77.2224 36.38 77.5024 36.548 77.8784 36.66L79.4384 37.152C80.1504 37.368 80.6864 37.68 81.0464 38.088C81.4064 38.488 81.5864 38.988 81.5864 39.588C81.5864 40.084 81.4544 40.524 81.1904 40.908C80.9344 41.292 80.5784 41.596 80.1224 41.82C79.6664 42.036 79.1384 42.144 78.5384 42.144ZM86.176 42.144C85.552 42.144 84.98 41.996 84.46 41.7C83.948 41.404 83.54 41 83.236 40.488C82.932 39.976 82.78 39.396 82.78 38.748C82.78 38.092 82.932 37.512 83.236 37.008C83.54 36.496 83.948 36.096 84.46 35.808C84.972 35.512 85.544 35.364 86.176 35.364C86.816 35.364 87.388 35.512 87.892 35.808C88.404 36.096 88.808 36.496 89.104 37.008C89.408 37.512 89.56 38.092 89.56 38.748C89.56 39.404 89.408 39.988 89.104 40.5C88.8 41.012 88.392 41.416 87.88 41.712C87.368 42 86.8 42.144 86.176 42.144ZM86.176 40.884C86.56 40.884 86.9 40.792 87.196 40.608C87.492 40.424 87.724 40.172 87.892 39.852C88.068 39.524 88.156 39.156 88.156 38.748C88.156 38.34 88.068 37.976 87.892 37.656C87.724 37.336 87.492 37.084 87.196 36.9C86.9 36.716 86.56 36.624 86.176 36.624C85.8 36.624 85.46 36.716 85.156 36.9C84.86 37.084 84.624 37.336 84.448 37.656C84.28 37.976 84.196 38.34 84.196 38.748C84.196 39.156 84.28 39.524 84.448 39.852C84.624 40.172 84.86 40.424 85.156 40.608C85.46 40.792 85.8 40.884 86.176 40.884ZM91.44 42V36.732H90.24V35.508H91.44V35.172C91.44 34.684 91.54 34.276 91.74 33.948C91.94 33.612 92.216 33.356 92.568 33.18C92.928 33.004 93.34 32.916 93.804 32.916C93.892 32.916 93.992 32.924 94.104 32.94C94.216 32.948 94.308 32.96 94.38 32.976V34.152C94.316 34.136 94.244 34.128 94.164 34.128C94.084 34.12 94.02 34.116 93.972 34.116C93.612 34.116 93.324 34.2 93.108 34.368C92.892 34.528 92.784 34.796 92.784 35.172V35.508H94.272V36.732H92.784V42H91.44ZM98.5785 42.072C97.8985 42.072 97.3705 41.88 96.9945 41.496C96.6185 41.112 96.4305 40.572 96.4305 39.876V36.732H95.2905V35.508H95.4705C95.7745 35.508 96.0105 35.42 96.1785 35.244C96.3465 35.068 96.4305 34.828 96.4305 34.524V34.02H97.7865V35.508H99.2625V36.732H97.7865V39.816C97.7865 40.04 97.8225 40.232 97.8945 40.392C97.9665 40.544 98.0825 40.664 98.2425 40.752C98.4025 40.832 98.6105 40.872 98.8665 40.872C98.9305 40.872 99.0025 40.868 99.0825 40.86C99.1625 40.852 99.2385 40.844 99.3105 40.836V42C99.1985 42.016 99.0745 42.032 98.9385 42.048C98.8025 42.064 98.6825 42.072 98.5785 42.072ZM102.206 42L99.9738 35.508H101.414L103.118 40.68H102.614L104.354 35.508H105.59L107.318 40.68H106.814L108.53 35.508H109.97L107.726 42H106.502L104.75 36.708H105.194L103.442 42H102.206ZM112.609 42.144C112.169 42.144 111.781 42.068 111.445 41.916C111.117 41.756 110.861 41.54 110.677 41.268C110.493 40.988 110.401 40.66 110.401 40.284C110.401 39.932 110.477 39.616 110.629 39.336C110.789 39.056 111.033 38.82 111.361 38.628C111.689 38.436 112.101 38.3 112.597 38.22L114.853 37.848V38.916L112.861 39.264C112.501 39.328 112.237 39.444 112.069 39.612C111.901 39.772 111.817 39.98 111.817 40.236C111.817 40.484 111.909 40.688 112.093 40.848C112.285 41 112.529 41.076 112.825 41.076C113.193 41.076 113.513 40.996 113.785 40.836C114.065 40.676 114.281 40.464 114.433 40.2C114.585 39.928 114.661 39.628 114.661 39.3V37.632C114.661 37.312 114.541 37.052 114.301 36.852C114.069 36.644 113.757 36.54 113.365 36.54C113.005 36.54 112.689 36.636 112.417 36.828C112.153 37.012 111.957 37.252 111.829 37.548L110.701 36.984C110.821 36.664 111.017 36.384 111.289 36.144C111.561 35.896 111.877 35.704 112.237 35.568C112.605 35.432 112.993 35.364 113.401 35.364C113.913 35.364 114.365 35.46 114.757 35.652C115.157 35.844 115.465 36.112 115.681 36.456C115.905 36.792 116.017 37.184 116.017 37.632V42H114.721V40.824L114.997 40.86C114.845 41.124 114.649 41.352 114.409 41.544C114.177 41.736 113.909 41.884 113.605 41.988C113.309 42.092 112.977 42.144 112.609 42.144ZM117.603 42V35.508H118.899V36.816L118.779 36.624C118.923 36.2 119.155 35.896 119.475 35.712C119.795 35.52 120.179 35.424 120.627 35.424H121.023V36.66H120.459C120.011 36.66 119.647 36.8 119.367 37.08C119.095 37.352 118.959 37.744 118.959 38.256V42H117.603ZM124.998 42.144C124.35 42.144 123.774 41.996 123.27 41.7C122.774 41.396 122.386 40.988 122.106 40.476C121.826 39.956 121.686 39.376 121.686 38.736C121.686 38.08 121.826 37.5 122.106 36.996C122.394 36.492 122.778 36.096 123.258 35.808C123.738 35.512 124.282 35.364 124.89 35.364C125.378 35.364 125.814 35.448 126.198 35.616C126.582 35.784 126.906 36.016 127.17 36.312C127.434 36.6 127.634 36.932 127.77 37.308C127.914 37.684 127.986 38.084 127.986 38.508C127.986 38.612 127.982 38.72 127.974 38.832C127.966 38.944 127.95 39.048 127.926 39.144H122.754V38.064H127.158L126.51 38.556C126.59 38.164 126.562 37.816 126.426 37.512C126.298 37.2 126.098 36.956 125.826 36.78C125.562 36.596 125.25 36.504 124.89 36.504C124.53 36.504 124.21 36.596 123.93 36.78C123.65 36.956 123.434 37.212 123.282 37.548C123.13 37.876 123.07 38.276 123.102 38.748C123.062 39.188 123.122 39.572 123.282 39.9C123.45 40.228 123.682 40.484 123.978 40.668C124.282 40.852 124.626 40.944 125.01 40.944C125.402 40.944 125.734 40.856 126.006 40.68C126.286 40.504 126.506 40.276 126.666 39.996L127.77 40.536C127.642 40.84 127.442 41.116 127.17 41.364C126.906 41.604 126.586 41.796 126.21 41.94C125.842 42.076 125.438 42.144 124.998 42.144Z" fill="#0066F5"/>
<g filter="url(#filter1_d_5950_2190)">
<path d="M219 22C219 20.8954 219.895 20 221 20H380C381.105 20 382 20.8954 382 22V53C382 54.1046 381.105 55 380 55H221C219.895 55 219 54.1046 219 53V22Z" fill="white"/>
<path d="M221 20.5H380C380.828 20.5 381.5 21.1716 381.5 22V53C381.5 53.8284 380.828 54.5 380 54.5H221C220.172 54.5 219.5 53.8284 219.5 53V22C219.5 21.1716 220.172 20.5 221 20.5Z" stroke="#0066F5"/>
</g>
<path d="M271.225 42.144C270.593 42.144 270.005 42.028 269.461 41.796C268.925 41.564 268.457 41.244 268.057 40.836C267.665 40.42 267.357 39.932 267.133 39.372C266.909 38.812 266.797 38.196 266.797 37.524C266.797 36.86 266.905 36.248 267.121 35.688C267.345 35.12 267.657 34.632 268.057 34.224C268.457 33.808 268.925 33.488 269.461 33.264C269.997 33.032 270.585 32.916 271.225 32.916C271.857 32.916 272.421 33.024 272.917 33.24C273.421 33.456 273.845 33.74 274.189 34.092C274.533 34.436 274.781 34.812 274.933 35.22L273.661 35.82C273.469 35.34 273.161 34.952 272.737 34.656C272.321 34.352 271.817 34.2 271.225 34.2C270.633 34.2 270.109 34.34 269.653 34.62C269.197 34.9 268.841 35.288 268.585 35.784C268.337 36.28 268.213 36.86 268.213 37.524C268.213 38.188 268.337 38.772 268.585 39.276C268.841 39.772 269.197 40.16 269.653 40.44C270.109 40.712 270.633 40.848 271.225 40.848C271.817 40.848 272.321 40.7 272.737 40.404C273.161 40.108 273.469 39.72 273.661 39.24L274.933 39.84C274.781 40.24 274.533 40.616 274.189 40.968C273.845 41.32 273.421 41.604 272.917 41.82C272.421 42.036 271.857 42.144 271.225 42.144ZM279.272 42.144C278.648 42.144 278.076 41.996 277.556 41.7C277.044 41.404 276.636 41 276.332 40.488C276.028 39.976 275.876 39.396 275.876 38.748C275.876 38.092 276.028 37.512 276.332 37.008C276.636 36.496 277.044 36.096 277.556 35.808C278.068 35.512 278.64 35.364 279.272 35.364C279.912 35.364 280.484 35.512 280.988 35.808C281.5 36.096 281.904 36.496 282.2 37.008C282.504 37.512 282.656 38.092 282.656 38.748C282.656 39.404 282.504 39.988 282.2 40.5C281.896 41.012 281.488 41.416 280.976 41.712C280.464 42 279.896 42.144 279.272 42.144ZM279.272 40.884C279.656 40.884 279.996 40.792 280.292 40.608C280.588 40.424 280.82 40.172 280.988 39.852C281.164 39.524 281.252 39.156 281.252 38.748C281.252 38.34 281.164 37.976 280.988 37.656C280.82 37.336 280.588 37.084 280.292 36.9C279.996 36.716 279.656 36.624 279.272 36.624C278.896 36.624 278.556 36.716 278.252 36.9C277.956 37.084 277.72 37.336 277.544 37.656C277.376 37.976 277.292 38.34 277.292 38.748C277.292 39.156 277.376 39.524 277.544 39.852C277.72 40.172 277.956 40.424 278.252 40.608C278.556 40.792 278.896 40.884 279.272 40.884ZM286.98 42.144C286.356 42.144 285.796 41.996 285.3 41.7C284.812 41.396 284.424 40.988 284.136 40.476C283.856 39.964 283.716 39.388 283.716 38.748C283.716 38.108 283.86 37.532 284.148 37.02C284.436 36.508 284.824 36.104 285.312 35.808C285.8 35.512 286.352 35.364 286.968 35.364C287.488 35.364 287.948 35.468 288.348 35.676C288.748 35.884 289.064 36.172 289.296 36.54L289.092 36.852V32.916H290.436V42H289.152V40.68L289.308 40.932C289.084 41.324 288.764 41.624 288.348 41.832C287.932 42.04 287.476 42.144 286.98 42.144ZM287.112 40.884C287.488 40.884 287.824 40.792 288.12 40.608C288.424 40.424 288.66 40.172 288.828 39.852C289.004 39.524 289.092 39.156 289.092 38.748C289.092 38.34 289.004 37.976 288.828 37.656C288.66 37.336 288.424 37.084 288.12 36.9C287.824 36.716 287.488 36.624 287.112 36.624C286.736 36.624 286.396 36.716 286.092 36.9C285.788 37.084 285.552 37.336 285.384 37.656C285.216 37.976 285.132 38.34 285.132 38.748C285.132 39.156 285.216 39.524 285.384 39.852C285.552 40.172 285.784 40.424 286.08 40.608C286.384 40.792 286.728 40.884 287.112 40.884ZM295.067 42.144C294.419 42.144 293.843 41.996 293.339 41.7C292.843 41.396 292.455 40.988 292.175 40.476C291.895 39.956 291.755 39.376 291.755 38.736C291.755 38.08 291.895 37.5 292.175 36.996C292.463 36.492 292.847 36.096 293.327 35.808C293.807 35.512 294.351 35.364 294.959 35.364C295.447 35.364 295.883 35.448 296.267 35.616C296.651 35.784 296.975 36.016 297.239 36.312C297.503 36.6 297.703 36.932 297.839 37.308C297.983 37.684 298.055 38.084 298.055 38.508C298.055 38.612 298.051 38.72 298.043 38.832C298.035 38.944 298.019 39.048 297.995 39.144H292.823V38.064H297.227L296.579 38.556C296.659 38.164 296.631 37.816 296.495 37.512C296.367 37.2 296.167 36.956 295.895 36.78C295.631 36.596 295.319 36.504 294.959 36.504C294.599 36.504 294.279 36.596 293.999 36.78C293.719 36.956 293.503 37.212 293.351 37.548C293.199 37.876 293.139 38.276 293.171 38.748C293.131 39.188 293.191 39.572 293.351 39.9C293.519 40.228 293.751 40.484 294.047 40.668C294.351 40.852 294.695 40.944 295.079 40.944C295.471 40.944 295.803 40.856 296.075 40.68C296.355 40.504 296.575 40.276 296.735 39.996L297.839 40.536C297.711 40.84 297.511 41.116 297.239 41.364C296.975 41.604 296.655 41.796 296.279 41.94C295.911 42.076 295.507 42.144 295.067 42.144ZM301.286 43.92C300.63 43.152 300.134 42.312 299.798 41.4C299.462 40.488 299.294 39.516 299.294 38.484C299.294 37.444 299.462 36.468 299.798 35.556C300.134 34.644 300.63 33.812 301.286 33.06H302.426C301.858 33.9 301.426 34.776 301.13 35.688C300.842 36.592 300.698 37.524 300.698 38.484C300.698 39.436 300.842 40.372 301.13 41.292C301.426 42.204 301.858 43.08 302.426 43.92H301.286ZM303.585 42V32.916H304.941V42H303.585ZM309.658 42.144C309.034 42.144 308.462 41.996 307.942 41.7C307.43 41.404 307.022 41 306.718 40.488C306.414 39.976 306.262 39.396 306.262 38.748C306.262 38.092 306.414 37.512 306.718 37.008C307.022 36.496 307.43 36.096 307.942 35.808C308.454 35.512 309.026 35.364 309.658 35.364C310.298 35.364 310.87 35.512 311.374 35.808C311.886 36.096 312.29 36.496 312.586 37.008C312.89 37.512 313.042 38.092 313.042 38.748C313.042 39.404 312.89 39.988 312.586 40.5C312.282 41.012 311.874 41.416 311.362 41.712C310.85 42 310.282 42.144 309.658 42.144ZM309.658 40.884C310.042 40.884 310.382 40.792 310.678 40.608C310.974 40.424 311.206 40.172 311.374 39.852C311.55 39.524 311.638 39.156 311.638 38.748C311.638 38.34 311.55 37.976 311.374 37.656C311.206 37.336 310.974 37.084 310.678 36.9C310.382 36.716 310.042 36.624 309.658 36.624C309.282 36.624 308.942 36.716 308.638 36.9C308.342 37.084 308.106 37.336 307.93 37.656C307.762 37.976 307.678 38.34 307.678 38.748C307.678 39.156 307.762 39.524 307.93 39.852C308.106 40.172 308.342 40.424 308.638 40.608C308.942 40.792 309.282 40.884 309.658 40.884ZM317.498 44.64C317.026 44.64 316.59 44.564 316.19 44.412C315.79 44.26 315.446 44.048 315.158 43.776C314.87 43.512 314.654 43.2 314.51 42.84L315.758 42.324C315.87 42.628 316.074 42.88 316.37 43.08C316.674 43.28 317.046 43.38 317.486 43.38C317.83 43.38 318.138 43.312 318.41 43.176C318.682 43.048 318.898 42.856 319.058 42.6C319.218 42.352 319.298 42.052 319.298 41.7V40.236L319.538 40.512C319.314 40.928 319.002 41.244 318.602 41.46C318.21 41.676 317.766 41.784 317.27 41.784C316.67 41.784 316.13 41.644 315.65 41.364C315.17 41.084 314.79 40.7 314.51 40.212C314.238 39.724 314.102 39.176 314.102 38.568C314.102 37.952 314.238 37.404 314.51 36.924C314.79 36.444 315.166 36.064 315.638 35.784C316.11 35.504 316.65 35.364 317.258 35.364C317.754 35.364 318.194 35.472 318.578 35.688C318.97 35.896 319.29 36.2 319.538 36.6L319.358 36.936V35.508H320.642V41.7C320.642 42.26 320.506 42.76 320.234 43.2C319.97 43.648 319.602 44 319.13 44.256C318.658 44.512 318.114 44.64 317.498 44.64ZM317.426 40.524C317.786 40.524 318.106 40.44 318.386 40.272C318.666 40.096 318.886 39.864 319.046 39.576C319.214 39.28 319.298 38.948 319.298 38.58C319.298 38.212 319.214 37.88 319.046 37.584C318.878 37.288 318.654 37.056 318.374 36.888C318.094 36.712 317.778 36.624 317.426 36.624C317.058 36.624 316.73 36.712 316.442 36.888C316.154 37.056 315.926 37.288 315.758 37.584C315.598 37.872 315.518 38.204 315.518 38.58C315.518 38.94 315.598 39.268 315.758 39.564C315.926 39.86 316.154 40.096 316.442 40.272C316.73 40.44 317.058 40.524 317.426 40.524ZM322.229 42V35.508H323.586V42H322.229ZM322.229 34.62V33.06H323.586V34.62H322.229ZM328.255 42.144C327.607 42.144 327.031 41.996 326.527 41.7C326.031 41.396 325.635 40.988 325.339 40.476C325.051 39.964 324.907 39.384 324.907 38.736C324.907 38.096 325.051 37.52 325.339 37.008C325.627 36.496 326.023 36.096 326.527 35.808C327.031 35.512 327.607 35.364 328.255 35.364C328.695 35.364 329.107 35.444 329.491 35.604C329.875 35.756 330.207 35.968 330.487 36.24C330.775 36.512 330.987 36.828 331.123 37.188L329.935 37.74C329.799 37.404 329.579 37.136 329.275 36.936C328.979 36.728 328.639 36.624 328.255 36.624C327.887 36.624 327.555 36.716 327.259 36.9C326.971 37.076 326.743 37.328 326.575 37.656C326.407 37.976 326.323 38.34 326.323 38.748C326.323 39.156 326.407 39.524 326.575 39.852C326.743 40.172 326.971 40.424 327.259 40.608C327.555 40.792 327.887 40.884 328.255 40.884C328.647 40.884 328.987 40.784 329.275 40.584C329.571 40.376 329.791 40.1 329.935 39.756L331.123 40.32C330.995 40.664 330.787 40.976 330.499 41.256C330.219 41.528 329.887 41.744 329.503 41.904C329.119 42.064 328.703 42.144 328.255 42.144ZM332.028 43.92C332.604 43.08 333.036 42.204 333.324 41.292C333.612 40.372 333.756 39.436 333.756 38.484C333.756 37.524 333.612 36.592 333.324 35.688C333.036 34.776 332.604 33.9 332.028 33.06H333.168C333.832 33.812 334.332 34.644 334.668 35.556C335.004 36.468 335.172 37.444 335.172 38.484C335.172 39.516 335.004 40.488 334.668 41.4C334.332 42.312 333.832 43.152 333.168 43.92H332.028Z" fill="#0066F5"/>
<g filter="url(#filter2_d_5950_2190)">
<path d="M418 22C418 20.8954 418.895 20 420 20H610C611.105 20 612 20.8954 612 22V53C612 54.1046 611.105 55 610 55H420C418.895 55 418 54.1046 418 53V22Z" fill="white"/>
<path d="M420 20.5H610C610.828 20.5 611.5 21.1716 611.5 22V53C611.5 53.8284 610.828 54.5 610 54.5H420C419.172 54.5 418.5 53.8284 418.5 53V22C418.5 21.1716 419.172 20.5 420 20.5Z" stroke="#0066F5"/>
</g>
<path d="M447.25 42.144C446.618 42.144 446.03 42.028 445.486 41.796C444.95 41.564 444.482 41.244 444.082 40.836C443.69 40.42 443.382 39.932 443.158 39.372C442.934 38.812 442.822 38.196 442.822 37.524C442.822 36.86 442.93 36.248 443.146 35.688C443.37 35.12 443.682 34.632 444.082 34.224C444.482 33.808 444.95 33.488 445.486 33.264C446.022 33.032 446.61 32.916 447.25 32.916C447.882 32.916 448.446 33.024 448.942 33.24C449.446 33.456 449.87 33.74 450.214 34.092C450.558 34.436 450.806 34.812 450.958 35.22L449.686 35.82C449.494 35.34 449.186 34.952 448.762 34.656C448.346 34.352 447.842 34.2 447.25 34.2C446.658 34.2 446.134 34.34 445.678 34.62C445.222 34.9 444.866 35.288 444.61 35.784C444.362 36.28 444.238 36.86 444.238 37.524C444.238 38.188 444.362 38.772 444.61 39.276C444.866 39.772 445.222 40.16 445.678 40.44C446.134 40.712 446.658 40.848 447.25 40.848C447.842 40.848 448.346 40.7 448.762 40.404C449.186 40.108 449.494 39.72 449.686 39.24L450.958 39.84C450.806 40.24 450.558 40.616 450.214 40.968C449.87 41.32 449.446 41.604 448.942 41.82C448.446 42.036 447.882 42.144 447.25 42.144ZM455.297 42.144C454.673 42.144 454.101 41.996 453.581 41.7C453.069 41.404 452.661 41 452.357 40.488C452.053 39.976 451.901 39.396 451.901 38.748C451.901 38.092 452.053 37.512 452.357 37.008C452.661 36.496 453.069 36.096 453.581 35.808C454.093 35.512 454.665 35.364 455.297 35.364C455.937 35.364 456.509 35.512 457.013 35.808C457.525 36.096 457.929 36.496 458.225 37.008C458.529 37.512 458.681 38.092 458.681 38.748C458.681 39.404 458.529 39.988 458.225 40.5C457.921 41.012 457.513 41.416 457.001 41.712C456.489 42 455.921 42.144 455.297 42.144ZM455.297 40.884C455.681 40.884 456.021 40.792 456.317 40.608C456.613 40.424 456.845 40.172 457.013 39.852C457.189 39.524 457.277 39.156 457.277 38.748C457.277 38.34 457.189 37.976 457.013 37.656C456.845 37.336 456.613 37.084 456.317 36.9C456.021 36.716 455.681 36.624 455.297 36.624C454.921 36.624 454.581 36.716 454.277 36.9C453.981 37.084 453.745 37.336 453.569 37.656C453.401 37.976 453.317 38.34 453.317 38.748C453.317 39.156 453.401 39.524 453.569 39.852C453.745 40.172 453.981 40.424 454.277 40.608C454.581 40.792 454.921 40.884 455.297 40.884ZM460.005 42V35.508H461.301V36.78L461.145 36.612C461.305 36.204 461.561 35.896 461.913 35.688C462.265 35.472 462.673 35.364 463.137 35.364C463.617 35.364 464.041 35.468 464.409 35.676C464.777 35.884 465.065 36.172 465.273 36.54C465.481 36.908 465.585 37.332 465.585 37.812V42H464.241V38.172C464.241 37.844 464.181 37.568 464.061 37.344C463.941 37.112 463.769 36.936 463.545 36.816C463.329 36.688 463.081 36.624 462.801 36.624C462.521 36.624 462.269 36.688 462.045 36.816C461.829 36.936 461.661 37.112 461.541 37.344C461.421 37.576 461.361 37.852 461.361 38.172V42H460.005ZM467.768 42V36.732H466.568V35.508H467.768V35.172C467.768 34.684 467.868 34.276 468.068 33.948C468.268 33.612 468.544 33.356 468.896 33.18C469.256 33.004 469.668 32.916 470.132 32.916C470.22 32.916 470.32 32.924 470.432 32.94C470.544 32.948 470.636 32.96 470.708 32.976V34.152C470.644 34.136 470.572 34.128 470.492 34.128C470.412 34.12 470.348 34.116 470.3 34.116C469.94 34.116 469.652 34.2 469.436 34.368C469.22 34.528 469.112 34.796 469.112 35.172V35.508H472.22V36.732H469.112V42H467.768ZM471.584 42V35.508H472.928V42H471.584ZM477.492 44.64C477.02 44.64 476.584 44.564 476.184 44.412C475.784 44.26 475.44 44.048 475.152 43.776C474.864 43.512 474.648 43.2 474.504 42.84L475.752 42.324C475.864 42.628 476.068 42.88 476.364 43.08C476.668 43.28 477.04 43.38 477.48 43.38C477.824 43.38 478.132 43.312 478.404 43.176C478.676 43.048 478.892 42.856 479.052 42.6C479.212 42.352 479.292 42.052 479.292 41.7V40.236L479.532 40.512C479.308 40.928 478.996 41.244 478.596 41.46C478.204 41.676 477.76 41.784 477.264 41.784C476.664 41.784 476.124 41.644 475.644 41.364C475.164 41.084 474.784 40.7 474.504 40.212C474.232 39.724 474.096 39.176 474.096 38.568C474.096 37.952 474.232 37.404 474.504 36.924C474.784 36.444 475.16 36.064 475.632 35.784C476.104 35.504 476.644 35.364 477.252 35.364C477.748 35.364 478.188 35.472 478.572 35.688C478.964 35.896 479.284 36.2 479.532 36.6L479.352 36.936V35.508H480.636V41.7C480.636 42.26 480.5 42.76 480.228 43.2C479.964 43.648 479.596 44 479.124 44.256C478.652 44.512 478.108 44.64 477.492 44.64ZM477.42 40.524C477.78 40.524 478.1 40.44 478.38 40.272C478.66 40.096 478.88 39.864 479.04 39.576C479.208 39.28 479.292 38.948 479.292 38.58C479.292 38.212 479.208 37.88 479.04 37.584C478.872 37.288 478.648 37.056 478.368 36.888C478.088 36.712 477.772 36.624 477.42 36.624C477.052 36.624 476.724 36.712 476.436 36.888C476.148 37.056 475.92 37.288 475.752 37.584C475.592 37.872 475.512 38.204 475.512 38.58C475.512 38.94 475.592 39.268 475.752 39.564C475.92 39.86 476.148 40.096 476.436 40.272C476.724 40.44 477.052 40.524 477.42 40.524ZM484.54 42.144C484.052 42.144 483.624 42.036 483.256 41.82C482.888 41.596 482.6 41.288 482.392 40.896C482.192 40.496 482.092 40.036 482.092 39.516V35.508H483.448V39.396C483.448 39.692 483.508 39.952 483.628 40.176C483.748 40.4 483.916 40.576 484.132 40.704C484.348 40.824 484.596 40.884 484.876 40.884C485.164 40.884 485.416 40.82 485.632 40.692C485.848 40.564 486.016 40.384 486.136 40.152C486.264 39.92 486.328 39.648 486.328 39.336V35.508H487.672V42H486.388V40.728L486.532 40.896C486.38 41.296 486.128 41.604 485.776 41.82C485.424 42.036 485.012 42.144 484.54 42.144ZM489.255 42V35.508H490.551V36.816L490.431 36.624C490.575 36.2 490.807 35.896 491.127 35.712C491.447 35.52 491.831 35.424 492.279 35.424H492.675V36.66H492.111C491.663 36.66 491.299 36.8 491.019 37.08C490.747 37.352 490.611 37.744 490.611 38.256V42H489.255ZM495.547 42.144C495.107 42.144 494.719 42.068 494.383 41.916C494.055 41.756 493.799 41.54 493.615 41.268C493.431 40.988 493.339 40.66 493.339 40.284C493.339 39.932 493.415 39.616 493.567 39.336C493.727 39.056 493.971 38.82 494.299 38.628C494.627 38.436 495.039 38.3 495.535 38.22L497.791 37.848V38.916L495.799 39.264C495.439 39.328 495.175 39.444 495.007 39.612C494.839 39.772 494.755 39.98 494.755 40.236C494.755 40.484 494.847 40.688 495.031 40.848C495.223 41 495.467 41.076 495.763 41.076C496.131 41.076 496.451 40.996 496.723 40.836C497.003 40.676 497.219 40.464 497.371 40.2C497.523 39.928 497.599 39.628 497.599 39.3V37.632C497.599 37.312 497.479 37.052 497.239 36.852C497.007 36.644 496.695 36.54 496.303 36.54C495.943 36.54 495.627 36.636 495.355 36.828C495.091 37.012 494.895 37.252 494.767 37.548L493.639 36.984C493.759 36.664 493.955 36.384 494.227 36.144C494.499 35.896 494.815 35.704 495.175 35.568C495.543 35.432 495.931 35.364 496.339 35.364C496.851 35.364 497.303 35.46 497.695 35.652C498.095 35.844 498.403 36.112 498.619 36.456C498.843 36.792 498.955 37.184 498.955 37.632V42H497.659V40.824L497.935 40.86C497.783 41.124 497.587 41.352 497.347 41.544C497.115 41.736 496.847 41.884 496.543 41.988C496.247 42.092 495.915 42.144 495.547 42.144ZM503.231 42.072C502.551 42.072 502.023 41.88 501.647 41.496C501.271 41.112 501.083 40.572 501.083 39.876V36.732H499.943V35.508H500.123C500.427 35.508 500.663 35.42 500.831 35.244C500.999 35.068 501.083 34.828 501.083 34.524V34.02H502.439V35.508H503.915V36.732H502.439V39.816C502.439 40.04 502.475 40.232 502.547 40.392C502.619 40.544 502.735 40.664 502.895 40.752C503.055 40.832 503.263 40.872 503.519 40.872C503.583 40.872 503.655 40.868 503.735 40.86C503.815 40.852 503.891 40.844 503.963 40.836V42C503.851 42.016 503.727 42.032 503.591 42.048C503.455 42.064 503.335 42.072 503.231 42.072ZM505.286 42V35.508H506.642V42H505.286ZM505.286 34.62V33.06H506.642V34.62H505.286ZM511.36 42.144C510.736 42.144 510.164 41.996 509.644 41.7C509.132 41.404 508.724 41 508.42 40.488C508.116 39.976 507.964 39.396 507.964 38.748C507.964 38.092 508.116 37.512 508.42 37.008C508.724 36.496 509.132 36.096 509.644 35.808C510.156 35.512 510.728 35.364 511.36 35.364C512 35.364 512.572 35.512 513.076 35.808C513.588 36.096 513.992 36.496 514.288 37.008C514.592 37.512 514.744 38.092 514.744 38.748C514.744 39.404 514.592 39.988 514.288 40.5C513.984 41.012 513.576 41.416 513.064 41.712C512.552 42 511.984 42.144 511.36 42.144ZM511.36 40.884C511.744 40.884 512.084 40.792 512.38 40.608C512.676 40.424 512.908 40.172 513.076 39.852C513.252 39.524 513.34 39.156 513.34 38.748C513.34 38.34 513.252 37.976 513.076 37.656C512.908 37.336 512.676 37.084 512.38 36.9C512.084 36.716 511.744 36.624 511.36 36.624C510.984 36.624 510.644 36.716 510.34 36.9C510.044 37.084 509.808 37.336 509.632 37.656C509.464 37.976 509.38 38.34 509.38 38.748C509.38 39.156 509.464 39.524 509.632 39.852C509.808 40.172 510.044 40.424 510.34 40.608C510.644 40.792 510.984 40.884 511.36 40.884ZM516.067 42V35.508H517.363V36.78L517.207 36.612C517.367 36.204 517.623 35.896 517.975 35.688C518.327 35.472 518.735 35.364 519.199 35.364C519.679 35.364 520.103 35.468 520.471 35.676C520.839 35.884 521.127 36.172 521.335 36.54C521.543 36.908 521.647 37.332 521.647 37.812V42H520.303V38.172C520.303 37.844 520.243 37.568 520.123 37.344C520.003 37.112 519.831 36.936 519.607 36.816C519.391 36.688 519.143 36.624 518.863 36.624C518.583 36.624 518.331 36.688 518.107 36.816C517.891 36.936 517.723 37.112 517.603 37.344C517.483 37.576 517.423 37.852 517.423 38.172V42H516.067ZM525.499 42.144C524.835 42.144 524.251 41.98 523.747 41.652C523.251 41.324 522.903 40.884 522.703 40.332L523.747 39.84C523.923 40.208 524.163 40.5 524.467 40.716C524.779 40.932 525.123 41.04 525.499 41.04C525.819 41.04 526.079 40.968 526.279 40.824C526.479 40.68 526.579 40.484 526.579 40.236C526.579 40.076 526.535 39.948 526.447 39.852C526.359 39.748 526.247 39.664 526.111 39.6C525.983 39.536 525.851 39.488 525.715 39.456L524.695 39.168C524.135 39.008 523.715 38.768 523.435 38.448C523.163 38.12 523.027 37.74 523.027 37.308C523.027 36.916 523.127 36.576 523.327 36.288C523.527 35.992 523.803 35.764 524.155 35.604C524.507 35.444 524.903 35.364 525.343 35.364C525.935 35.364 526.463 35.512 526.927 35.808C527.391 36.096 527.719 36.5 527.911 37.02L526.867 37.512C526.739 37.2 526.535 36.952 526.255 36.768C525.983 36.584 525.675 36.492 525.331 36.492C525.035 36.492 524.799 36.564 524.623 36.708C524.447 36.844 524.359 37.024 524.359 37.248C524.359 37.4 524.399 37.528 524.479 37.632C524.559 37.728 524.663 37.808 524.791 37.872C524.919 37.928 525.051 37.976 525.187 38.016L526.243 38.328C526.779 38.48 527.191 38.72 527.479 39.048C527.767 39.368 527.911 39.752 527.911 40.2C527.911 40.584 527.807 40.924 527.599 41.22C527.399 41.508 527.119 41.736 526.759 41.904C526.399 42.064 525.979 42.144 525.499 42.144ZM531.147 43.92C530.491 43.152 529.995 42.312 529.659 41.4C529.323 40.488 529.155 39.516 529.155 38.484C529.155 37.444 529.323 36.468 529.659 35.556C529.995 34.644 530.491 33.812 531.147 33.06H532.287C531.719 33.9 531.287 34.776 530.991 35.688C530.703 36.592 530.559 37.524 530.559 38.484C530.559 39.436 530.703 40.372 530.991 41.292C531.287 42.204 531.719 43.08 532.287 43.92H531.147ZM536.914 42.144C536.41 42.144 535.95 42.04 535.534 41.832C535.126 41.624 534.81 41.324 534.586 40.932L534.742 40.68V42H533.446V32.916H534.802V36.852L534.586 36.54C534.826 36.172 535.146 35.884 535.546 35.676C535.946 35.468 536.402 35.364 536.914 35.364C537.53 35.364 538.082 35.512 538.57 35.808C539.066 36.104 539.454 36.508 539.734 37.02C540.022 37.532 540.166 38.108 540.166 38.748C540.166 39.388 540.022 39.964 539.734 40.476C539.454 40.988 539.07 41.396 538.582 41.7C538.094 41.996 537.538 42.144 536.914 42.144ZM536.782 40.884C537.166 40.884 537.506 40.792 537.802 40.608C538.098 40.424 538.33 40.172 538.498 39.852C538.674 39.524 538.762 39.156 538.762 38.748C538.762 38.34 538.674 37.976 538.498 37.656C538.33 37.336 538.098 37.084 537.802 36.9C537.506 36.716 537.166 36.624 536.782 36.624C536.406 36.624 536.066 36.716 535.762 36.9C535.466 37.084 535.23 37.336 535.054 37.656C534.886 37.976 534.802 38.34 534.802 38.748C534.802 39.156 534.886 39.524 535.054 39.852C535.23 40.172 535.466 40.424 535.762 40.608C536.066 40.792 536.406 40.884 536.782 40.884ZM544.533 42.144C543.885 42.144 543.309 41.996 542.805 41.7C542.309 41.396 541.921 40.988 541.641 40.476C541.361 39.956 541.221 39.376 541.221 38.736C541.221 38.08 541.361 37.5 541.641 36.996C541.929 36.492 542.313 36.096 542.793 35.808C543.273 35.512 543.817 35.364 544.425 35.364C544.913 35.364 545.349 35.448 545.733 35.616C546.117 35.784 546.441 36.016 546.705 36.312C546.969 36.6 547.169 36.932 547.305 37.308C547.449 37.684 547.521 38.084 547.521 38.508C547.521 38.612 547.517 38.72 547.509 38.832C547.501 38.944 547.485 39.048 547.461 39.144H542.289V38.064H546.693L546.045 38.556C546.125 38.164 546.097 37.816 545.961 37.512C545.833 37.2 545.633 36.956 545.361 36.78C545.097 36.596 544.785 36.504 544.425 36.504C544.065 36.504 543.745 36.596 543.465 36.78C543.185 36.956 542.969 37.212 542.817 37.548C542.665 37.876 542.605 38.276 542.637 38.748C542.597 39.188 542.657 39.572 542.817 39.9C542.985 40.228 543.217 40.484 543.513 40.668C543.817 40.852 544.161 40.944 544.545 40.944C544.937 40.944 545.269 40.856 545.541 40.68C545.821 40.504 546.041 40.276 546.201 39.996L547.305 40.536C547.177 40.84 546.977 41.116 546.705 41.364C546.441 41.604 546.121 41.796 545.745 41.94C545.377 42.076 544.973 42.144 544.533 42.144ZM548.845 42V32.916H550.201V36.78L549.985 36.612C550.145 36.204 550.401 35.896 550.753 35.688C551.105 35.472 551.513 35.364 551.977 35.364C552.457 35.364 552.881 35.468 553.249 35.676C553.617 35.884 553.905 36.172 554.113 36.54C554.321 36.908 554.425 37.328 554.425 37.8V42H553.081V38.172C553.081 37.844 553.017 37.568 552.889 37.344C552.769 37.112 552.601 36.936 552.385 36.816C552.169 36.688 551.921 36.624 551.641 36.624C551.369 36.624 551.121 36.688 550.897 36.816C550.681 36.936 550.509 37.112 550.381 37.344C550.261 37.576 550.201 37.852 550.201 38.172V42H548.845ZM557.82 42.144C557.38 42.144 556.992 42.068 556.656 41.916C556.328 41.756 556.072 41.54 555.888 41.268C555.704 40.988 555.612 40.66 555.612 40.284C555.612 39.932 555.688 39.616 555.84 39.336C556 39.056 556.244 38.82 556.572 38.628C556.9 38.436 557.312 38.3 557.808 38.22L560.064 37.848V38.916L558.072 39.264C557.712 39.328 557.448 39.444 557.28 39.612C557.112 39.772 557.028 39.98 557.028 40.236C557.028 40.484 557.12 40.688 557.304 40.848C557.496 41 557.74 41.076 558.036 41.076C558.404 41.076 558.724 40.996 558.996 40.836C559.276 40.676 559.492 40.464 559.644 40.2C559.796 39.928 559.872 39.628 559.872 39.3V37.632C559.872 37.312 559.752 37.052 559.512 36.852C559.28 36.644 558.968 36.54 558.576 36.54C558.216 36.54 557.9 36.636 557.628 36.828C557.364 37.012 557.168 37.252 557.04 37.548L555.912 36.984C556.032 36.664 556.228 36.384 556.5 36.144C556.772 35.896 557.088 35.704 557.448 35.568C557.816 35.432 558.204 35.364 558.612 35.364C559.124 35.364 559.576 35.46 559.968 35.652C560.368 35.844 560.676 36.112 560.892 36.456C561.116 36.792 561.228 37.184 561.228 37.632V42H559.932V40.824L560.208 40.86C560.056 41.124 559.86 41.352 559.62 41.544C559.388 41.736 559.12 41.884 558.816 41.988C558.52 42.092 558.188 42.144 557.82 42.144ZM564.58 42L562.036 35.508H563.512L565.468 40.8H564.928L566.884 35.508H568.372L565.816 42H564.58ZM569.294 42V35.508H570.65V42H569.294ZM569.294 34.62V33.06H570.65V34.62H569.294ZM575.367 42.144C574.743 42.144 574.171 41.996 573.651 41.7C573.139 41.404 572.731 41 572.427 40.488C572.123 39.976 571.971 39.396 571.971 38.748C571.971 38.092 572.123 37.512 572.427 37.008C572.731 36.496 573.139 36.096 573.651 35.808C574.163 35.512 574.735 35.364 575.367 35.364C576.007 35.364 576.579 35.512 577.083 35.808C577.595 36.096 577.999 36.496 578.295 37.008C578.599 37.512 578.751 38.092 578.751 38.748C578.751 39.404 578.599 39.988 578.295 40.5C577.991 41.012 577.583 41.416 577.071 41.712C576.559 42 575.991 42.144 575.367 42.144ZM575.367 40.884C575.751 40.884 576.091 40.792 576.387 40.608C576.683 40.424 576.915 40.172 577.083 39.852C577.259 39.524 577.347 39.156 577.347 38.748C577.347 38.34 577.259 37.976 577.083 37.656C576.915 37.336 576.683 37.084 576.387 36.9C576.091 36.716 575.751 36.624 575.367 36.624C574.991 36.624 574.651 36.716 574.347 36.9C574.051 37.084 573.815 37.336 573.639 37.656C573.471 37.976 573.387 38.34 573.387 38.748C573.387 39.156 573.471 39.524 573.639 39.852C573.815 40.172 574.051 40.424 574.347 40.608C574.651 40.792 574.991 40.884 575.367 40.884ZM580.075 42V35.508H581.371V36.816L581.251 36.624C581.395 36.2 581.627 35.896 581.947 35.712C582.267 35.52 582.651 35.424 583.099 35.424H583.495V36.66H582.931C582.483 36.66 582.119 36.8 581.839 37.08C581.567 37.352 581.431 37.744 581.431 38.256V42H580.075ZM584.003 43.92C584.579 43.08 585.011 42.204 585.299 41.292C585.587 40.372 585.731 39.436 585.731 38.484C585.731 37.524 585.587 36.592 585.299 35.688C585.011 34.776 584.579 33.9 584.003 33.06H585.143C585.807 33.812 586.307 34.644 586.643 35.556C586.979 36.468 587.147 37.444 587.147 38.484C587.147 39.516 586.979 40.488 586.643 41.4C586.307 42.312 585.807 43.152 585.143 43.92H584.003Z" fill="#0066F5"/>
<rect x="744" y="20" width="36" height="36" rx="18" fill="#0066F5"/>
<path d="M762.129 34.5761V31.7862C760.814 30.7929 759.196 30.2856 757.274 30.2856C753.127 30.2856 749.789 33.7729 749.789 37.9999C749.789 42.2269 753.127 45.7142 757.274 45.7142C759.196 45.7142 760.82 45.2155 762.129 44.2136C762.82 43.6846 763.383 43.1203 763.865 42.5373C764.941 41.2381 765.621 39.8457 766.442 38.5429C766.912 37.902 767.641 37.5138 768.518 37.5138C770.055 37.5138 771.147 38.7397 771.147 40.4305C771.147 42.1213 770.055 43.3471 768.518 43.3471C767.635 43.3471 766.815 42.8064 766.361 42.3196L766.243 42.3028C766.14 42.4743 765.863 42.9302 765.649 43.2308C765.439 43.5254 765.104 43.9295 764.969 44.0915L765.01 44.2665C765.913 45.1673 767.144 45.7142 768.518 45.7142C771.35 45.7142 773.575 43.3894 773.575 40.4305C773.575 37.4716 771.35 35.1467 768.518 35.1467C766.715 35.1467 765.159 36.088 764.265 37.535C764.236 37.5852 764.206 37.6355 764.177 37.6861C764.116 37.7976 764.058 37.9115 763.998 38.0245C763.644 38.6895 762.781 40.2442 761.981 41.1596C760.943 42.3474 759.074 43.1357 757.274 43.1357C754.604 43.1357 752.459 40.8532 752.459 37.9999C752.459 35.1467 754.604 32.8641 757.274 32.8641C759.074 32.8641 760.713 33.5193 762.028 34.6817L762.129 34.5761Z" fill="white"/>
</g>
<defs>
<filter id="filter0_d_5950_2190" x="14" y="16" width="175" height="47" filterUnits="userSpaceOnUse" color-interpolation-filters="sRGB">
<feFlood flood-opacity="0" result="BackgroundImageFix"/>
<feColorMatrix in="SourceAlpha" type="matrix" values="0 0 0 0 0 0 0 0 0 0 0 0 0 0 0 0 0 0 127 0" result="hardAlpha"/>
<feOffset dy="2"/>
<feGaussianBlur stdDeviation="3"/>
<feComposite in2="hardAlpha" operator="out"/>
<feColorMatrix type="matrix" values="0 0 0 0 0.0431373 0 0 0 0 0.0431373 0 0 0 0 0.054902 0 0 0 0.08 0"/>
<feBlend mode="normal" in2="BackgroundImageFix" result="effect1_dropShadow_5950_2190"/>
<feBlend mode="normal" in="SourceGraphic" in2="effect1_dropShadow_5950_2190" result="shape"/>
</filter>
<filter id="filter1_d_5950_2190" x="213" y="16" width="175" height="47" filterUnits="userSpaceOnUse" color-interpolation-filters="sRGB">
<feFlood flood-opacity="0" result="BackgroundImageFix"/>
<feColorMatrix in="SourceAlpha" type="matrix" values="0 0 0 0 0 0 0 0 0 0 0 0 0 0 0 0 0 0 127 0" result="hardAlpha"/>
<feOffset dy="2"/>
<feGaussianBlur stdDeviation="3"/>
<feComposite in2="hardAlpha" operator="out"/>
<feColorMatrix type="matrix" values="0 0 0 0 0.0431373 0 0 0 0 0.0431373 0 0 0 0 0.054902 0 0 0 0.08 0"/>
<feBlend mode="normal" in2="BackgroundImageFix" result="effect1_dropShadow_5950_2190"/>
<feBlend mode="normal" in="SourceGraphic" in2="effect1_dropShadow_5950_2190" result="shape"/>
</filter>
<filter id="filter2_d_5950_2190" x="412" y="16" width="206" height="47" filterUnits="userSpaceOnUse" color-interpolation-filters="sRGB">
<feFlood flood-opacity="0" result="BackgroundImageFix"/>
<feColorMatrix in="SourceAlpha" type="matrix" values="0 0 0 0 0 0 0 0 0 0 0 0 0 0 0 0 0 0 127 0" result="hardAlpha"/>
<feOffset dy="2"/>
<feGaussianBlur stdDeviation="3"/>
<feComposite in2="hardAlpha" operator="out"/>
<feColorMatrix type="matrix" values="0 0 0 0 0.0431373 0 0 0 0 0.0431373 0 0 0 0 0.054902 0 0 0 0.08 0"/>
<feBlend mode="normal" in2="BackgroundImageFix" result="effect1_dropShadow_5950_2190"/>
<feBlend mode="normal" in="SourceGraphic" in2="effect1_dropShadow_5950_2190" result="shape"/>
</filter>
</defs>
</svg>
