<svg width="800" height="75" viewBox="0 0 800 75" fill="none" xmlns="http://www.w3.org/2000/svg">
<rect x="0.5" y="0.5" width="799" height="74" rx="3.5" stroke="#DFDFE2"/>
<mask id="mask0_5950_2245" style="mask-type:alpha" maskUnits="userSpaceOnUse" x="0" y="0" width="800" height="75">
<rect x="0.5" y="0.5" width="799" height="74" rx="3.5" fill="white" stroke="#DFDFE2"/>
</mask>
<g mask="url(#mask0_5950_2245)">
<mask id="mask1_5950_2245" style="mask-type:alpha" maskUnits="userSpaceOnUse" x="451" y="0" width="451" height="226">
<rect x="451" width="451" height="225.5" fill="#D9D9D9"/>
<rect x="451.37" y="0.370139" width="450.26" height="224.76" stroke="#0B0B0E" stroke-opacity="0.05" stroke-width="0.740278"/>
</mask>
<g mask="url(#mask1_5950_2245)">
<path d="M676.5 74.627L648.313 -20.0432L620.125 74.627L591.938 -20.0432L563.75 74.6269L535.563 -20.0432L507.375 74.6269L479.188 -20.0432L451 74.6269" stroke="#0B0B0E" stroke-opacity="0.05" stroke-width="0.740278"/>
<path d="M676.5 108.438L648.313 13.7674L620.125 108.437L591.938 13.7674L563.75 108.437L535.563 13.7674L507.375 108.437L479.188 13.7674L451 108.437" stroke="#0B0B0E" stroke-opacity="0.05" stroke-width="0.740278"/>
<path d="M676.5 142.246L648.313 47.576L620.125 142.246L591.938 47.576L563.75 142.246L535.563 47.576L507.375 142.246L479.188 47.576L451 142.246" stroke="#0B0B0E" stroke-opacity="0.05" stroke-width="0.740278"/>
<path d="M902 74.626L873.813 -20.0441L845.625 74.626L817.438 -20.0441L789.25 74.626L761.063 -20.0442L732.875 74.626L704.688 -20.0442L676.5 74.626" stroke="#0B0B0E" stroke-opacity="0.05" stroke-width="0.740278"/>
<path d="M902 108.438L873.813 13.7674L845.625 108.437L817.438 13.7674L789.25 108.437L761.063 13.7674L732.875 108.437L704.688 13.7674L676.5 108.437" stroke="#0B0B0E" stroke-opacity="0.05" stroke-width="0.740278"/>
<path d="M902 142.245L873.813 47.575L845.625 142.245L817.438 47.575L789.25 142.245L761.063 47.575L732.875 142.245L704.688 47.575L676.5 142.245" stroke="#0B0B0E" stroke-opacity="0.05" stroke-width="0.740278"/>
</g>
<mask id="mask2_5950_2245" style="mask-type:alpha" maskUnits="userSpaceOnUse" x="0" y="0" width="451" height="226">
<rect width="451" height="225.5" fill="#D9D9D9"/>
<rect x="0.370139" y="0.370139" width="450.26" height="224.76" stroke="#0B0B0E" stroke-opacity="0.05" stroke-width="0.740278"/>
</mask>
<g mask="url(#mask2_5950_2245)">
<path d="M225.5 74.627L197.313 -20.0432L169.125 74.627L140.938 -20.0432L112.75 74.6269L84.5626 -20.0432L56.3751 74.6269L28.1876 -20.0432L0.000156939 74.6269" stroke="#0B0B0E" stroke-opacity="0.05" stroke-width="0.740278"/>
<path d="M225.5 108.438L197.313 13.7674L169.125 108.437L140.938 13.7674L112.75 108.437L84.5626 13.7674L56.3751 108.437L28.1876 13.7674L0.000156939 108.437" stroke="#0B0B0E" stroke-opacity="0.05" stroke-width="0.740278"/>
<path d="M225.5 142.246L197.313 47.576L169.125 142.246L140.938 47.576L112.75 142.246L84.5626 47.576L56.3751 142.246L28.1876 47.576L0.000156939 142.246" stroke="#0B0B0E" stroke-opacity="0.05" stroke-width="0.740278"/>
<path d="M451 74.626L422.813 -20.0441L394.625 74.626L366.438 -20.0441L338.25 74.626L310.063 -20.0442L281.875 74.626L253.688 -20.0442L225.5 74.626" stroke="#0B0B0E" stroke-opacity="0.05" stroke-width="0.740278"/>
<path d="M451 108.438L422.813 13.7674L394.625 108.437L366.438 13.7674L338.25 108.437L310.063 13.7674L281.875 108.437L253.688 13.7674L225.5 108.437" stroke="#0B0B0E" stroke-opacity="0.05" stroke-width="0.740278"/>
<path d="M451 142.245L422.813 47.575L394.625 142.245L366.438 47.575L338.25 142.245L310.063 47.575L281.875 142.245L253.688 47.575L225.5 142.245" stroke="#0B0B0E" stroke-opacity="0.05" stroke-width="0.740278"/>
</g>
<path d="M284.5 36.275V34.475H295V36.275H284.5ZM284.5 40.025V38.225H295V40.025H284.5Z" fill="#0066F5"/>
<g filter="url(#filter0_d_5950_2245)">
<path d="M20 22C20 20.8954 20.8954 20 22 20H268C269.105 20 270 20.8954 270 22V53C270 54.1046 269.105 55 268 55H22C20.8954 55 20 54.1046 20 53V22Z" fill="white"/>
<path d="M20.5 22C20.5 21.1716 21.1716 20.5 22 20.5H268C268.828 20.5 269.5 21.1716 269.5 22V53C269.5 53.8284 268.828 54.5 268 54.5H22C21.1716 54.5 20.5 53.8284 20.5 53V22Z" stroke="#0066F5"/>
</g>
<path d="M46.8322 42V34.32H44.4562V33.06H50.5762V34.32H48.2362V42H46.8322ZM53.7912 42.144C53.1672 42.144 52.5952 41.996 52.0752 41.7C51.5632 41.404 51.1552 41 50.8512 40.488C50.5472 39.976 50.3952 39.396 50.3952 38.748C50.3952 38.092 50.5472 37.512 50.8512 37.008C51.1552 36.496 51.5632 36.096 52.0752 35.808C52.5872 35.512 53.1592 35.364 53.7912 35.364C54.4312 35.364 55.0032 35.512 55.5072 35.808C56.0192 36.096 56.4232 36.496 56.7192 37.008C57.0232 37.512 57.1752 38.092 57.1752 38.748C57.1752 39.404 57.0232 39.988 56.7192 40.5C56.4152 41.012 56.0072 41.416 55.4952 41.712C54.9832 42 54.4152 42.144 53.7912 42.144ZM53.7912 40.884C54.1752 40.884 54.5152 40.792 54.8112 40.608C55.1072 40.424 55.3392 40.172 55.5072 39.852C55.6832 39.524 55.7712 39.156 55.7712 38.748C55.7712 38.34 55.6832 37.976 55.5072 37.656C55.3392 37.336 55.1072 37.084 54.8112 36.9C54.5152 36.716 54.1752 36.624 53.7912 36.624C53.4152 36.624 53.0752 36.716 52.7712 36.9C52.4752 37.084 52.2392 37.336 52.0632 37.656C51.8952 37.976 51.8112 38.34 51.8112 38.748C51.8112 39.156 51.8952 39.524 52.0632 39.852C52.2392 40.172 52.4752 40.424 52.7712 40.608C53.0752 40.792 53.4152 40.884 53.7912 40.884ZM61.499 42.144C60.875 42.144 60.315 41.996 59.819 41.7C59.331 41.396 58.943 40.988 58.655 40.476C58.375 39.964 58.235 39.388 58.235 38.748C58.235 38.108 58.379 37.532 58.667 37.02C58.955 36.508 59.343 36.104 59.831 35.808C60.319 35.512 60.871 35.364 61.487 35.364C62.007 35.364 62.467 35.468 62.867 35.676C63.267 35.884 63.583 36.172 63.815 36.54L63.611 36.852V32.916H64.955V42H63.671V40.68L63.827 40.932C63.603 41.324 63.283 41.624 62.867 41.832C62.451 42.04 61.995 42.144 61.499 42.144ZM61.631 40.884C62.007 40.884 62.343 40.792 62.639 40.608C62.943 40.424 63.179 40.172 63.347 39.852C63.523 39.524 63.611 39.156 63.611 38.748C63.611 38.34 63.523 37.976 63.347 37.656C63.179 37.336 62.943 37.084 62.639 36.9C62.343 36.716 62.007 36.624 61.631 36.624C61.255 36.624 60.915 36.716 60.611 36.9C60.307 37.084 60.071 37.336 59.903 37.656C59.735 37.976 59.651 38.34 59.651 38.748C59.651 39.156 59.735 39.524 59.903 39.852C60.071 40.172 60.303 40.424 60.599 40.608C60.903 40.792 61.247 40.884 61.631 40.884ZM68.4821 42.144C68.0421 42.144 67.6541 42.068 67.3181 41.916C66.9901 41.756 66.7341 41.54 66.5501 41.268C66.3661 40.988 66.2741 40.66 66.2741 40.284C66.2741 39.932 66.3501 39.616 66.5021 39.336C66.6621 39.056 66.9061 38.82 67.2341 38.628C67.5621 38.436 67.9741 38.3 68.4701 38.22L70.7261 37.848V38.916L68.7341 39.264C68.3741 39.328 68.1101 39.444 67.9421 39.612C67.7741 39.772 67.6901 39.98 67.6901 40.236C67.6901 40.484 67.7821 40.688 67.9661 40.848C68.1581 41 68.4021 41.076 68.6981 41.076C69.0661 41.076 69.3861 40.996 69.6581 40.836C69.9381 40.676 70.1541 40.464 70.3061 40.2C70.4581 39.928 70.5341 39.628 70.5341 39.3V37.632C70.5341 37.312 70.4141 37.052 70.1741 36.852C69.9421 36.644 69.6301 36.54 69.2381 36.54C68.8781 36.54 68.5621 36.636 68.2901 36.828C68.0261 37.012 67.8301 37.252 67.7021 37.548L66.5741 36.984C66.6941 36.664 66.8901 36.384 67.1621 36.144C67.4341 35.896 67.7501 35.704 68.1101 35.568C68.4781 35.432 68.8661 35.364 69.2741 35.364C69.7861 35.364 70.2381 35.46 70.6301 35.652C71.0301 35.844 71.3381 36.112 71.5541 36.456C71.7781 36.792 71.8901 37.184 71.8901 37.632V42H70.5941V40.824L70.8701 40.86C70.7181 41.124 70.5221 41.352 70.2821 41.544C70.0501 41.736 69.7821 41.884 69.4781 41.988C69.1821 42.092 68.8501 42.144 68.4821 42.144ZM74.0516 44.652C73.8916 44.652 73.7316 44.636 73.5716 44.604C73.4196 44.58 73.2796 44.54 73.1516 44.484V43.32C73.2476 43.344 73.3636 43.364 73.4996 43.38C73.6356 43.404 73.7676 43.416 73.8956 43.416C74.2716 43.416 74.5476 43.332 74.7236 43.164C74.9076 43.004 75.0716 42.752 75.2156 42.408L75.6476 41.424L75.6236 42.564L72.8156 35.508H74.2676L76.3436 40.92H75.8516L77.9156 35.508H79.3796L76.5116 42.708C76.3596 43.092 76.1676 43.428 75.9356 43.716C75.7116 44.012 75.4436 44.24 75.1316 44.4C74.8276 44.568 74.4676 44.652 74.0516 44.652ZM82.2156 43.92C81.5596 43.152 81.0636 42.312 80.7276 41.4C80.3916 40.488 80.2236 39.516 80.2236 38.484C80.2236 37.444 80.3916 36.468 80.7276 35.556C81.0636 34.644 81.5596 33.812 82.2156 33.06H83.3556C82.7876 33.9 82.3556 34.776 82.0596 35.688C81.7716 36.592 81.6276 37.524 81.6276 38.484C81.6276 39.436 81.7716 40.372 82.0596 41.292C82.3556 42.204 82.7876 43.08 83.3556 43.92H82.2156ZM87.5987 42.144C86.9507 42.144 86.3747 41.996 85.8707 41.7C85.3747 41.396 84.9787 40.988 84.6827 40.476C84.3947 39.964 84.2507 39.384 84.2507 38.736C84.2507 38.096 84.3947 37.52 84.6827 37.008C84.9707 36.496 85.3667 36.096 85.8707 35.808C86.3747 35.512 86.9507 35.364 87.5987 35.364C88.0387 35.364 88.4507 35.444 88.8347 35.604C89.2187 35.756 89.5507 35.968 89.8307 36.24C90.1187 36.512 90.3307 36.828 90.4667 37.188L89.2787 37.74C89.1427 37.404 88.9227 37.136 88.6187 36.936C88.3227 36.728 87.9827 36.624 87.5987 36.624C87.2307 36.624 86.8987 36.716 86.6027 36.9C86.3147 37.076 86.0867 37.328 85.9187 37.656C85.7507 37.976 85.6667 38.34 85.6667 38.748C85.6667 39.156 85.7507 39.524 85.9187 39.852C86.0867 40.172 86.3147 40.424 86.6027 40.608C86.8987 40.792 87.2307 40.884 87.5987 40.884C87.9907 40.884 88.3307 40.784 88.6187 40.584C88.9147 40.376 89.1347 40.1 89.2787 39.756L90.4667 40.32C90.3387 40.664 90.1307 40.976 89.8427 41.256C89.5627 41.528 89.2307 41.744 88.8467 41.904C88.4627 42.064 88.0467 42.144 87.5987 42.144ZM94.924 42.144C94.3 42.144 93.728 41.996 93.208 41.7C92.696 41.404 92.288 41 91.984 40.488C91.68 39.976 91.528 39.396 91.528 38.748C91.528 38.092 91.68 37.512 91.984 37.008C92.288 36.496 92.696 36.096 93.208 35.808C93.72 35.512 94.292 35.364 94.924 35.364C95.564 35.364 96.136 35.512 96.64 35.808C97.152 36.096 97.556 36.496 97.852 37.008C98.156 37.512 98.308 38.092 98.308 38.748C98.308 39.404 98.156 39.988 97.852 40.5C97.548 41.012 97.14 41.416 96.628 41.712C96.116 42 95.548 42.144 94.924 42.144ZM94.924 40.884C95.308 40.884 95.648 40.792 95.944 40.608C96.24 40.424 96.472 40.172 96.64 39.852C96.816 39.524 96.904 39.156 96.904 38.748C96.904 38.34 96.816 37.976 96.64 37.656C96.472 37.336 96.24 37.084 95.944 36.9C95.648 36.716 95.308 36.624 94.924 36.624C94.548 36.624 94.208 36.716 93.904 36.9C93.608 37.084 93.372 37.336 93.196 37.656C93.028 37.976 92.944 38.34 92.944 38.748C92.944 39.156 93.028 39.524 93.196 39.852C93.372 40.172 93.608 40.424 93.904 40.608C94.208 40.792 94.548 40.884 94.924 40.884ZM99.6318 42V35.508H100.928V36.78L100.772 36.612C100.932 36.204 101.188 35.896 101.54 35.688C101.892 35.472 102.3 35.364 102.764 35.364C103.244 35.364 103.668 35.468 104.036 35.676C104.404 35.884 104.692 36.172 104.9 36.54C105.108 36.908 105.212 37.332 105.212 37.812V42H103.868V38.172C103.868 37.844 103.808 37.568 103.688 37.344C103.568 37.112 103.396 36.936 103.172 36.816C102.956 36.688 102.708 36.624 102.428 36.624C102.148 36.624 101.896 36.688 101.672 36.816C101.456 36.936 101.288 37.112 101.168 37.344C101.048 37.576 100.988 37.852 100.988 38.172V42H99.6318ZM107.395 42V36.732H106.195V35.508H107.395V35.172C107.395 34.684 107.495 34.276 107.695 33.948C107.895 33.612 108.171 33.356 108.523 33.18C108.883 33.004 109.295 32.916 109.759 32.916C109.847 32.916 109.947 32.924 110.059 32.94C110.171 32.948 110.263 32.96 110.335 32.976V34.152C110.271 34.136 110.199 34.128 110.119 34.128C110.039 34.12 109.975 34.116 109.927 34.116C109.567 34.116 109.279 34.2 109.063 34.368C108.847 34.528 108.739 34.796 108.739 35.172V35.508H111.847V36.732H108.739V42H107.395ZM111.211 42V35.508H112.555V42H111.211ZM117.119 44.64C116.647 44.64 116.211 44.564 115.811 44.412C115.411 44.26 115.067 44.048 114.779 43.776C114.491 43.512 114.275 43.2 114.131 42.84L115.379 42.324C115.491 42.628 115.695 42.88 115.991 43.08C116.295 43.28 116.667 43.38 117.107 43.38C117.451 43.38 117.759 43.312 118.031 43.176C118.303 43.048 118.519 42.856 118.679 42.6C118.839 42.352 118.919 42.052 118.919 41.7V40.236L119.159 40.512C118.935 40.928 118.623 41.244 118.223 41.46C117.831 41.676 117.387 41.784 116.891 41.784C116.291 41.784 115.751 41.644 115.271 41.364C114.791 41.084 114.411 40.7 114.131 40.212C113.859 39.724 113.723 39.176 113.723 38.568C113.723 37.952 113.859 37.404 114.131 36.924C114.411 36.444 114.787 36.064 115.259 35.784C115.731 35.504 116.271 35.364 116.879 35.364C117.375 35.364 117.815 35.472 118.199 35.688C118.591 35.896 118.911 36.2 119.159 36.6L118.979 36.936V35.508H120.263V41.7C120.263 42.26 120.127 42.76 119.855 43.2C119.591 43.648 119.223 44 118.751 44.256C118.279 44.512 117.735 44.64 117.119 44.64ZM117.047 40.524C117.407 40.524 117.727 40.44 118.007 40.272C118.287 40.096 118.507 39.864 118.667 39.576C118.835 39.28 118.919 38.948 118.919 38.58C118.919 38.212 118.835 37.88 118.667 37.584C118.499 37.288 118.275 37.056 117.995 36.888C117.715 36.712 117.399 36.624 117.047 36.624C116.679 36.624 116.351 36.712 116.063 36.888C115.775 37.056 115.547 37.288 115.379 37.584C115.219 37.872 115.139 38.204 115.139 38.58C115.139 38.94 115.219 39.268 115.379 39.564C115.547 39.86 115.775 40.096 116.063 40.272C116.351 40.44 116.679 40.524 117.047 40.524ZM124.167 42.144C123.679 42.144 123.251 42.036 122.883 41.82C122.515 41.596 122.227 41.288 122.019 40.896C121.819 40.496 121.719 40.036 121.719 39.516V35.508H123.075V39.396C123.075 39.692 123.135 39.952 123.255 40.176C123.375 40.4 123.543 40.576 123.759 40.704C123.975 40.824 124.223 40.884 124.503 40.884C124.791 40.884 125.043 40.82 125.259 40.692C125.475 40.564 125.643 40.384 125.763 40.152C125.891 39.92 125.955 39.648 125.955 39.336V35.508H127.299V42H126.015V40.728L126.159 40.896C126.007 41.296 125.755 41.604 125.403 41.82C125.051 42.036 124.639 42.144 124.167 42.144ZM128.882 42V35.508H130.178V36.816L130.058 36.624C130.202 36.2 130.434 35.896 130.754 35.712C131.074 35.52 131.458 35.424 131.906 35.424H132.302V36.66H131.738C131.29 36.66 130.926 36.8 130.646 37.08C130.374 37.352 130.238 37.744 130.238 38.256V42H128.882ZM135.174 42.144C134.734 42.144 134.346 42.068 134.01 41.916C133.682 41.756 133.426 41.54 133.242 41.268C133.058 40.988 132.966 40.66 132.966 40.284C132.966 39.932 133.042 39.616 133.194 39.336C133.354 39.056 133.598 38.82 133.926 38.628C134.254 38.436 134.666 38.3 135.162 38.22L137.418 37.848V38.916L135.426 39.264C135.066 39.328 134.802 39.444 134.634 39.612C134.466 39.772 134.382 39.98 134.382 40.236C134.382 40.484 134.474 40.688 134.658 40.848C134.85 41 135.094 41.076 135.39 41.076C135.758 41.076 136.078 40.996 136.35 40.836C136.63 40.676 136.846 40.464 136.998 40.2C137.15 39.928 137.226 39.628 137.226 39.3V37.632C137.226 37.312 137.106 37.052 136.866 36.852C136.634 36.644 136.322 36.54 135.93 36.54C135.57 36.54 135.254 36.636 134.982 36.828C134.718 37.012 134.522 37.252 134.394 37.548L133.266 36.984C133.386 36.664 133.582 36.384 133.854 36.144C134.126 35.896 134.442 35.704 134.802 35.568C135.17 35.432 135.558 35.364 135.965 35.364C136.478 35.364 136.93 35.46 137.322 35.652C137.722 35.844 138.03 36.112 138.246 36.456C138.47 36.792 138.582 37.184 138.582 37.632V42H137.286V40.824L137.562 40.86C137.41 41.124 137.214 41.352 136.974 41.544C136.742 41.736 136.474 41.884 136.17 41.988C135.874 42.092 135.542 42.144 135.174 42.144ZM142.858 42.072C142.178 42.072 141.65 41.88 141.274 41.496C140.898 41.112 140.71 40.572 140.71 39.876V36.732H139.57V35.508H139.75C140.054 35.508 140.29 35.42 140.458 35.244C140.626 35.068 140.71 34.828 140.71 34.524V34.02H142.066V35.508H143.542V36.732H142.066V39.816C142.066 40.04 142.102 40.232 142.174 40.392C142.246 40.544 142.362 40.664 142.522 40.752C142.682 40.832 142.89 40.872 143.146 40.872C143.21 40.872 143.282 40.868 143.362 40.86C143.442 40.852 143.518 40.844 143.59 40.836V42C143.478 42.016 143.354 42.032 143.218 42.048C143.082 42.064 142.962 42.072 142.858 42.072ZM144.913 42V35.508H146.269V42H144.913ZM144.913 34.62V33.06H146.269V34.62H144.913ZM150.987 42.144C150.363 42.144 149.791 41.996 149.271 41.7C148.759 41.404 148.351 41 148.047 40.488C147.743 39.976 147.591 39.396 147.591 38.748C147.591 38.092 147.743 37.512 148.047 37.008C148.351 36.496 148.759 36.096 149.271 35.808C149.783 35.512 150.355 35.364 150.987 35.364C151.627 35.364 152.199 35.512 152.703 35.808C153.215 36.096 153.619 36.496 153.915 37.008C154.219 37.512 154.371 38.092 154.371 38.748C154.371 39.404 154.219 39.988 153.915 40.5C153.611 41.012 153.203 41.416 152.691 41.712C152.179 42 151.611 42.144 150.987 42.144ZM150.987 40.884C151.371 40.884 151.711 40.792 152.007 40.608C152.303 40.424 152.535 40.172 152.703 39.852C152.879 39.524 152.967 39.156 152.967 38.748C152.967 38.34 152.879 37.976 152.703 37.656C152.535 37.336 152.303 37.084 152.007 36.9C151.711 36.716 151.371 36.624 150.987 36.624C150.611 36.624 150.271 36.716 149.967 36.9C149.671 37.084 149.435 37.336 149.259 37.656C149.091 37.976 149.007 38.34 149.007 38.748C149.007 39.156 149.091 39.524 149.259 39.852C149.435 40.172 149.671 40.424 149.967 40.608C150.271 40.792 150.611 40.884 150.987 40.884ZM155.694 42V35.508H156.99V36.78L156.834 36.612C156.994 36.204 157.25 35.896 157.602 35.688C157.954 35.472 158.362 35.364 158.826 35.364C159.306 35.364 159.73 35.468 160.098 35.676C160.466 35.884 160.754 36.172 160.962 36.54C161.17 36.908 161.274 37.332 161.274 37.812V42H159.93V38.172C159.93 37.844 159.87 37.568 159.75 37.344C159.63 37.112 159.458 36.936 159.234 36.816C159.018 36.688 158.77 36.624 158.49 36.624C158.21 36.624 157.958 36.688 157.734 36.816C157.518 36.936 157.35 37.112 157.23 37.344C157.11 37.576 157.05 37.852 157.05 38.172V42H155.694ZM164.823 42V35.508H166.119V36.912L165.951 36.696C166.087 36.256 166.335 35.924 166.695 35.7C167.055 35.476 167.467 35.364 167.931 35.364C168.451 35.364 168.911 35.504 169.311 35.784C169.719 36.056 169.991 36.42 170.127 36.876L169.743 36.912C169.935 36.392 170.227 36.004 170.619 35.748C171.019 35.492 171.475 35.364 171.987 35.364C172.435 35.364 172.839 35.468 173.199 35.676C173.567 35.884 173.859 36.172 174.075 36.54C174.291 36.908 174.399 37.328 174.399 37.8V42H173.043V38.172C173.043 37.844 172.983 37.568 172.863 37.344C172.751 37.112 172.591 36.936 172.383 36.816C172.183 36.688 171.947 36.624 171.675 36.624C171.403 36.624 171.163 36.688 170.955 36.816C170.747 36.936 170.583 37.112 170.463 37.344C170.343 37.576 170.283 37.852 170.283 38.172V42H168.939V38.172C168.939 37.844 168.879 37.568 168.759 37.344C168.647 37.112 168.487 36.936 168.279 36.816C168.079 36.688 167.839 36.624 167.559 36.624C167.287 36.624 167.047 36.688 166.839 36.816C166.631 36.936 166.467 37.112 166.347 37.344C166.235 37.576 166.179 37.852 166.179 38.172V42H164.823ZM177.795 42.144C177.355 42.144 176.967 42.068 176.631 41.916C176.303 41.756 176.047 41.54 175.863 41.268C175.679 40.988 175.587 40.66 175.587 40.284C175.587 39.932 175.663 39.616 175.815 39.336C175.975 39.056 176.219 38.82 176.547 38.628C176.875 38.436 177.287 38.3 177.783 38.22L180.039 37.848V38.916L178.047 39.264C177.687 39.328 177.423 39.444 177.255 39.612C177.087 39.772 177.003 39.98 177.003 40.236C177.003 40.484 177.095 40.688 177.279 40.848C177.471 41 177.715 41.076 178.011 41.076C178.379 41.076 178.699 40.996 178.971 40.836C179.251 40.676 179.467 40.464 179.619 40.2C179.771 39.928 179.847 39.628 179.847 39.3V37.632C179.847 37.312 179.727 37.052 179.487 36.852C179.255 36.644 178.943 36.54 178.551 36.54C178.191 36.54 177.875 36.636 177.603 36.828C177.339 37.012 177.143 37.252 177.015 37.548L175.887 36.984C176.007 36.664 176.203 36.384 176.475 36.144C176.747 35.896 177.063 35.704 177.423 35.568C177.791 35.432 178.179 35.364 178.587 35.364C179.099 35.364 179.551 35.46 179.943 35.652C180.343 35.844 180.651 36.112 180.867 36.456C181.091 36.792 181.203 37.184 181.203 37.632V42H179.907V40.824L180.183 40.86C180.031 41.124 179.835 41.352 179.595 41.544C179.363 41.736 179.095 41.884 178.791 41.988C178.495 42.092 178.163 42.144 177.795 42.144ZM182.788 42V35.508H184.084V36.78L183.928 36.612C184.088 36.204 184.344 35.896 184.696 35.688C185.048 35.472 185.456 35.364 185.92 35.364C186.4 35.364 186.824 35.468 187.192 35.676C187.56 35.884 187.848 36.172 188.056 36.54C188.264 36.908 188.368 37.332 188.368 37.812V42H187.024V38.172C187.024 37.844 186.964 37.568 186.844 37.344C186.724 37.112 186.552 36.936 186.328 36.816C186.112 36.688 185.864 36.624 185.584 36.624C185.304 36.624 185.052 36.688 184.828 36.816C184.612 36.936 184.444 37.112 184.324 37.344C184.204 37.576 184.144 37.852 184.144 38.172V42H182.788ZM191.763 42.144C191.323 42.144 190.935 42.068 190.599 41.916C190.271 41.756 190.015 41.54 189.831 41.268C189.647 40.988 189.555 40.66 189.555 40.284C189.555 39.932 189.631 39.616 189.783 39.336C189.943 39.056 190.187 38.82 190.515 38.628C190.843 38.436 191.255 38.3 191.751 38.22L194.007 37.848V38.916L192.015 39.264C191.655 39.328 191.391 39.444 191.223 39.612C191.055 39.772 190.971 39.98 190.971 40.236C190.971 40.484 191.063 40.688 191.247 40.848C191.439 41 191.683 41.076 191.979 41.076C192.347 41.076 192.667 40.996 192.939 40.836C193.219 40.676 193.435 40.464 193.587 40.2C193.739 39.928 193.815 39.628 193.815 39.3V37.632C193.815 37.312 193.695 37.052 193.455 36.852C193.223 36.644 192.911 36.54 192.519 36.54C192.159 36.54 191.843 36.636 191.571 36.828C191.307 37.012 191.111 37.252 190.983 37.548L189.855 36.984C189.975 36.664 190.171 36.384 190.443 36.144C190.715 35.896 191.031 35.704 191.391 35.568C191.759 35.432 192.147 35.364 192.555 35.364C193.067 35.364 193.519 35.46 193.911 35.652C194.311 35.844 194.619 36.112 194.835 36.456C195.059 36.792 195.171 37.184 195.171 37.632V42H193.875V40.824L194.151 40.86C193.999 41.124 193.803 41.352 193.563 41.544C193.331 41.736 193.063 41.884 192.759 41.988C192.463 42.092 192.131 42.144 191.763 42.144ZM199.889 44.64C199.417 44.64 198.981 44.564 198.581 44.412C198.181 44.26 197.837 44.048 197.549 43.776C197.261 43.512 197.045 43.2 196.901 42.84L198.149 42.324C198.261 42.628 198.465 42.88 198.761 43.08C199.065 43.28 199.437 43.38 199.877 43.38C200.221 43.38 200.529 43.312 200.801 43.176C201.073 43.048 201.289 42.856 201.449 42.6C201.609 42.352 201.689 42.052 201.689 41.7V40.236L201.929 40.512C201.705 40.928 201.393 41.244 200.993 41.46C200.601 41.676 200.157 41.784 199.661 41.784C199.061 41.784 198.521 41.644 198.041 41.364C197.561 41.084 197.181 40.7 196.901 40.212C196.629 39.724 196.493 39.176 196.493 38.568C196.493 37.952 196.629 37.404 196.901 36.924C197.181 36.444 197.557 36.064 198.029 35.784C198.501 35.504 199.041 35.364 199.649 35.364C200.145 35.364 200.585 35.472 200.969 35.688C201.361 35.896 201.681 36.2 201.929 36.6L201.749 36.936V35.508H203.033V41.7C203.033 42.26 202.897 42.76 202.625 43.2C202.361 43.648 201.993 44 201.521 44.256C201.049 44.512 200.505 44.64 199.889 44.64ZM199.817 40.524C200.177 40.524 200.497 40.44 200.777 40.272C201.057 40.096 201.277 39.864 201.437 39.576C201.605 39.28 201.689 38.948 201.689 38.58C201.689 38.212 201.605 37.88 201.437 37.584C201.269 37.288 201.045 37.056 200.765 36.888C200.485 36.712 200.169 36.624 199.817 36.624C199.449 36.624 199.121 36.712 198.833 36.888C198.545 37.056 198.317 37.288 198.149 37.584C197.989 37.872 197.909 38.204 197.909 38.58C197.909 38.94 197.989 39.268 198.149 39.564C198.317 39.86 198.545 40.096 198.833 40.272C199.121 40.44 199.449 40.524 199.817 40.524ZM207.668 42.144C207.02 42.144 206.444 41.996 205.94 41.7C205.444 41.396 205.056 40.988 204.776 40.476C204.496 39.956 204.356 39.376 204.356 38.736C204.356 38.08 204.496 37.5 204.776 36.996C205.064 36.492 205.448 36.096 205.928 35.808C206.408 35.512 206.952 35.364 207.56 35.364C208.048 35.364 208.484 35.448 208.868 35.616C209.252 35.784 209.576 36.016 209.84 36.312C210.104 36.6 210.304 36.932 210.44 37.308C210.584 37.684 210.656 38.084 210.656 38.508C210.656 38.612 210.652 38.72 210.644 38.832C210.636 38.944 210.62 39.048 210.596 39.144H205.424V38.064H209.828L209.18 38.556C209.26 38.164 209.232 37.816 209.096 37.512C208.968 37.2 208.768 36.956 208.496 36.78C208.232 36.596 207.92 36.504 207.56 36.504C207.2 36.504 206.88 36.596 206.6 36.78C206.32 36.956 206.104 37.212 205.952 37.548C205.8 37.876 205.74 38.276 205.772 38.748C205.732 39.188 205.792 39.572 205.952 39.9C206.12 40.228 206.352 40.484 206.648 40.668C206.952 40.852 207.296 40.944 207.68 40.944C208.072 40.944 208.404 40.856 208.676 40.68C208.956 40.504 209.176 40.276 209.336 39.996L210.44 40.536C210.312 40.84 210.112 41.116 209.84 41.364C209.576 41.604 209.256 41.796 208.88 41.94C208.512 42.076 208.108 42.144 207.668 42.144ZM211.979 42V35.508H213.276V36.912L213.108 36.696C213.244 36.256 213.492 35.924 213.852 35.7C214.212 35.476 214.624 35.364 215.088 35.364C215.608 35.364 216.068 35.504 216.468 35.784C216.876 36.056 217.148 36.42 217.284 36.876L216.9 36.912C217.092 36.392 217.384 36.004 217.776 35.748C218.176 35.492 218.632 35.364 219.144 35.364C219.592 35.364 219.996 35.468 220.356 35.676C220.724 35.884 221.016 36.172 221.232 36.54C221.448 36.908 221.556 37.328 221.556 37.8V42H220.2V38.172C220.2 37.844 220.14 37.568 220.02 37.344C219.908 37.112 219.748 36.936 219.54 36.816C219.34 36.688 219.104 36.624 218.832 36.624C218.56 36.624 218.32 36.688 218.112 36.816C217.904 36.936 217.74 37.112 217.62 37.344C217.5 37.576 217.44 37.852 217.44 38.172V42H216.096V38.172C216.096 37.844 216.036 37.568 215.916 37.344C215.804 37.112 215.644 36.936 215.436 36.816C215.236 36.688 214.996 36.624 214.715 36.624C214.444 36.624 214.204 36.688 213.996 36.816C213.788 36.936 213.624 37.112 213.504 37.344C213.392 37.576 213.336 37.852 213.336 38.172V42H211.979ZM226.055 42.144C225.407 42.144 224.831 41.996 224.327 41.7C223.831 41.396 223.443 40.988 223.163 40.476C222.883 39.956 222.743 39.376 222.743 38.736C222.743 38.08 222.883 37.5 223.163 36.996C223.451 36.492 223.835 36.096 224.315 35.808C224.795 35.512 225.339 35.364 225.947 35.364C226.435 35.364 226.871 35.448 227.255 35.616C227.639 35.784 227.963 36.016 228.227 36.312C228.491 36.6 228.691 36.932 228.827 37.308C228.971 37.684 229.043 38.084 229.043 38.508C229.043 38.612 229.039 38.72 229.031 38.832C229.023 38.944 229.007 39.048 228.983 39.144H223.811V38.064H228.215L227.567 38.556C227.647 38.164 227.619 37.816 227.483 37.512C227.355 37.2 227.155 36.956 226.883 36.78C226.619 36.596 226.307 36.504 225.947 36.504C225.587 36.504 225.267 36.596 224.987 36.78C224.707 36.956 224.491 37.212 224.339 37.548C224.187 37.876 224.127 38.276 224.159 38.748C224.119 39.188 224.179 39.572 224.339 39.9C224.507 40.228 224.739 40.484 225.035 40.668C225.339 40.852 225.683 40.944 226.067 40.944C226.459 40.944 226.791 40.856 227.063 40.68C227.343 40.504 227.563 40.276 227.723 39.996L228.827 40.536C228.699 40.84 228.499 41.116 228.227 41.364C227.963 41.604 227.643 41.796 227.267 41.94C226.899 42.076 226.495 42.144 226.055 42.144ZM230.366 42V35.508H231.662V36.78L231.506 36.612C231.666 36.204 231.922 35.896 232.274 35.688C232.626 35.472 233.034 35.364 233.498 35.364C233.978 35.364 234.402 35.468 234.77 35.676C235.138 35.884 235.426 36.172 235.634 36.54C235.842 36.908 235.946 37.332 235.946 37.812V42H234.602V38.172C234.602 37.844 234.542 37.568 234.422 37.344C234.302 37.112 234.13 36.936 233.906 36.816C233.69 36.688 233.442 36.624 233.162 36.624C232.882 36.624 232.63 36.688 232.406 36.816C232.19 36.936 232.022 37.112 231.902 37.344C231.782 37.576 231.722 37.852 231.722 38.172V42H230.366ZM240.205 42.072C239.525 42.072 238.997 41.88 238.621 41.496C238.245 41.112 238.057 40.572 238.057 39.876V36.732H236.917V35.508H237.097C237.401 35.508 237.637 35.42 237.805 35.244C237.973 35.068 238.057 34.828 238.057 34.524V34.02H239.413V35.508H240.889V36.732H239.413V39.816C239.413 40.04 239.449 40.232 239.521 40.392C239.593 40.544 239.709 40.664 239.869 40.752C240.029 40.832 240.237 40.872 240.493 40.872C240.557 40.872 240.629 40.868 240.709 40.86C240.789 40.852 240.865 40.844 240.937 40.836V42C240.825 42.016 240.701 42.032 240.565 42.048C240.429 42.064 240.309 42.072 240.205 42.072ZM241.841 43.92C242.417 43.08 242.849 42.204 243.137 41.292C243.425 40.372 243.569 39.436 243.569 38.484C243.569 37.524 243.425 36.592 243.137 35.688C242.849 34.776 242.417 33.9 241.841 33.06H242.981C243.645 33.812 244.145 34.644 244.481 35.556C244.817 36.468 244.985 37.444 244.985 38.484C244.985 39.516 244.817 40.488 244.481 41.4C244.145 42.312 243.645 43.152 242.981 43.92H241.841Z" fill="#0066F5"/>
<g filter="url(#filter1_d_5950_2245)">
<path d="M310 22C310 20.8954 310.895 20 312 20H541C542.105 20 543 20.8954 543 22V53C543 54.1046 542.105 55 541 55H312C310.895 55 310 54.1046 310 53V22Z" fill="white"/>
<path d="M310.5 22C310.5 21.1716 311.172 20.5 312 20.5H541C541.828 20.5 542.5 21.1716 542.5 22V53C542.5 53.8284 541.828 54.5 541 54.5H312C311.172 54.5 310.5 53.8284 310.5 53V22Z" stroke="#0066F5"/>
</g>
<path d="M335.227 42V33.06H338.479C339.079 33.06 339.607 33.172 340.063 33.396C340.527 33.612 340.887 33.932 341.143 34.356C341.399 34.772 341.527 35.272 341.527 35.856C341.527 36.432 341.395 36.928 341.131 37.344C340.875 37.76 340.519 38.08 340.063 38.304C339.607 38.528 339.079 38.64 338.479 38.64H336.643V42H335.227ZM336.643 37.38H338.515C338.835 37.38 339.115 37.316 339.355 37.188C339.595 37.06 339.783 36.884 339.919 36.66C340.055 36.428 340.123 36.156 340.123 35.844C340.123 35.532 340.055 35.264 339.919 35.04C339.783 34.808 339.595 34.632 339.355 34.512C339.115 34.384 338.835 34.32 338.515 34.32H336.643V37.38ZM342.853 42V35.508H344.149V36.816L344.029 36.624C344.173 36.2 344.405 35.896 344.725 35.712C345.045 35.52 345.429 35.424 345.877 35.424H346.273V36.66H345.709C345.261 36.66 344.897 36.8 344.617 37.08C344.345 37.352 344.209 37.744 344.209 38.256V42H342.853ZM350.248 42.144C349.6 42.144 349.024 41.996 348.52 41.7C348.024 41.396 347.636 40.988 347.356 40.476C347.076 39.956 346.936 39.376 346.936 38.736C346.936 38.08 347.076 37.5 347.356 36.996C347.644 36.492 348.028 36.096 348.508 35.808C348.988 35.512 349.532 35.364 350.14 35.364C350.628 35.364 351.064 35.448 351.448 35.616C351.832 35.784 352.156 36.016 352.42 36.312C352.684 36.6 352.884 36.932 353.02 37.308C353.164 37.684 353.236 38.084 353.236 38.508C353.236 38.612 353.232 38.72 353.224 38.832C353.216 38.944 353.2 39.048 353.176 39.144H348.004V38.064H352.408L351.76 38.556C351.84 38.164 351.812 37.816 351.676 37.512C351.548 37.2 351.348 36.956 351.076 36.78C350.812 36.596 350.5 36.504 350.14 36.504C349.78 36.504 349.46 36.596 349.18 36.78C348.9 36.956 348.684 37.212 348.532 37.548C348.38 37.876 348.32 38.276 348.352 38.748C348.312 39.188 348.372 39.572 348.532 39.9C348.7 40.228 348.932 40.484 349.228 40.668C349.532 40.852 349.876 40.944 350.26 40.944C350.652 40.944 350.984 40.856 351.256 40.68C351.536 40.504 351.756 40.276 351.916 39.996L353.02 40.536C352.892 40.84 352.692 41.116 352.42 41.364C352.156 41.604 351.836 41.796 351.46 41.94C351.092 42.076 350.688 42.144 350.248 42.144ZM354.764 39.348V38.148H359.564V39.348H354.764ZM365.676 42.144C365.044 42.144 364.456 42.028 363.912 41.796C363.376 41.564 362.904 41.244 362.496 40.836C362.096 40.42 361.784 39.932 361.56 39.372C361.336 38.812 361.224 38.196 361.224 37.524C361.224 36.86 361.332 36.248 361.548 35.688C361.772 35.12 362.084 34.632 362.484 34.224C362.884 33.808 363.352 33.488 363.888 33.264C364.424 33.032 365.012 32.916 365.652 32.916C366.284 32.916 366.848 33.024 367.344 33.24C367.848 33.456 368.272 33.74 368.616 34.092C368.96 34.436 369.208 34.812 369.36 35.22L368.1 35.832C367.916 35.344 367.612 34.952 367.188 34.656C366.764 34.352 366.252 34.2 365.652 34.2C365.06 34.2 364.536 34.34 364.08 34.62C363.624 34.9 363.268 35.288 363.012 35.784C362.764 36.28 362.64 36.86 362.64 37.524C362.64 38.188 362.768 38.772 363.024 39.276C363.288 39.772 363.648 40.16 364.104 40.44C364.56 40.712 365.084 40.848 365.676 40.848C366.172 40.848 366.624 40.748 367.032 40.548C367.448 40.34 367.78 40.052 368.028 39.684C368.276 39.308 368.4 38.872 368.4 38.376V37.764L369.036 38.34H365.652V37.14H369.804V37.98C369.804 38.636 369.692 39.224 369.468 39.744C369.244 40.256 368.94 40.692 368.556 41.052C368.172 41.412 367.732 41.684 367.236 41.868C366.74 42.052 366.22 42.144 365.676 42.144ZM371.118 42V35.508H372.474V42H371.118ZM371.118 34.62V33.06H372.474V34.62H371.118ZM376.868 42.072C376.188 42.072 375.66 41.88 375.284 41.496C374.908 41.112 374.72 40.572 374.72 39.876V36.732H373.58V35.508H373.76C374.064 35.508 374.3 35.42 374.468 35.244C374.636 35.068 374.72 34.828 374.72 34.524V34.02H376.076V35.508H377.552V36.732H376.076V39.816C376.076 40.04 376.112 40.232 376.184 40.392C376.256 40.544 376.372 40.664 376.532 40.752C376.692 40.832 376.9 40.872 377.156 40.872C377.22 40.872 377.292 40.868 377.372 40.86C377.452 40.852 377.528 40.844 377.6 40.836V42C377.488 42.016 377.364 42.032 377.228 42.048C377.092 42.064 376.972 42.072 376.868 42.072ZM378.923 42V32.916H380.279V36.78L380.063 36.612C380.223 36.204 380.479 35.896 380.831 35.688C381.183 35.472 381.591 35.364 382.055 35.364C382.535 35.364 382.959 35.468 383.327 35.676C383.695 35.884 383.983 36.172 384.191 36.54C384.399 36.908 384.503 37.328 384.503 37.8V42H383.159V38.172C383.159 37.844 383.095 37.568 382.967 37.344C382.847 37.112 382.679 36.936 382.463 36.816C382.247 36.688 381.999 36.624 381.719 36.624C381.447 36.624 381.199 36.688 380.975 36.816C380.759 36.936 380.587 37.112 380.459 37.344C380.339 37.576 380.279 37.852 380.279 38.172V42H378.923ZM388.27 42.144C387.782 42.144 387.354 42.036 386.986 41.82C386.618 41.596 386.33 41.288 386.122 40.896C385.922 40.496 385.822 40.036 385.822 39.516V35.508H387.178V39.396C387.178 39.692 387.238 39.952 387.358 40.176C387.478 40.4 387.646 40.576 387.862 40.704C388.078 40.824 388.326 40.884 388.606 40.884C388.894 40.884 389.146 40.82 389.362 40.692C389.578 40.564 389.746 40.384 389.866 40.152C389.994 39.92 390.058 39.648 390.058 39.336V35.508H391.402V42H390.118V40.728L390.262 40.896C390.11 41.296 389.858 41.604 389.506 41.82C389.154 42.036 388.742 42.144 388.27 42.144ZM396.453 42.144C395.949 42.144 395.489 42.04 395.073 41.832C394.665 41.624 394.349 41.324 394.125 40.932L394.281 40.68V42H392.985V32.916H394.341V36.852L394.125 36.54C394.365 36.172 394.685 35.884 395.085 35.676C395.485 35.468 395.941 35.364 396.453 35.364C397.069 35.364 397.621 35.512 398.109 35.808C398.605 36.104 398.993 36.508 399.273 37.02C399.561 37.532 399.705 38.108 399.705 38.748C399.705 39.388 399.561 39.964 399.273 40.476C398.993 40.988 398.609 41.396 398.121 41.7C397.633 41.996 397.077 42.144 396.453 42.144ZM396.321 40.884C396.705 40.884 397.045 40.792 397.341 40.608C397.637 40.424 397.869 40.172 398.037 39.852C398.213 39.524 398.301 39.156 398.301 38.748C398.301 38.34 398.213 37.976 398.037 37.656C397.869 37.336 397.637 37.084 397.341 36.9C397.045 36.716 396.705 36.624 396.321 36.624C395.945 36.624 395.605 36.716 395.301 36.9C395.005 37.084 394.769 37.336 394.593 37.656C394.425 37.976 394.341 38.34 394.341 38.748C394.341 39.156 394.425 39.524 394.593 39.852C394.769 40.172 395.005 40.424 395.301 40.608C395.605 40.792 395.945 40.884 396.321 40.884ZM402.932 43.92C402.276 43.152 401.78 42.312 401.444 41.4C401.108 40.488 400.94 39.516 400.94 38.484C400.94 37.444 401.108 36.468 401.444 35.556C401.78 34.644 402.276 33.812 402.932 33.06H404.072C403.504 33.9 403.072 34.776 402.776 35.688C402.488 36.592 402.344 37.524 402.344 38.484C402.344 39.436 402.488 40.372 402.776 41.292C403.072 42.204 403.504 43.08 404.072 43.92H402.932ZM408.315 42.144C407.667 42.144 407.091 41.996 406.587 41.7C406.091 41.396 405.695 40.988 405.399 40.476C405.111 39.964 404.967 39.384 404.967 38.736C404.967 38.096 405.111 37.52 405.399 37.008C405.687 36.496 406.083 36.096 406.587 35.808C407.091 35.512 407.667 35.364 408.315 35.364C408.755 35.364 409.167 35.444 409.551 35.604C409.935 35.756 410.267 35.968 410.547 36.24C410.835 36.512 411.047 36.828 411.183 37.188L409.995 37.74C409.859 37.404 409.639 37.136 409.335 36.936C409.039 36.728 408.699 36.624 408.315 36.624C407.947 36.624 407.615 36.716 407.319 36.9C407.031 37.076 406.803 37.328 406.635 37.656C406.467 37.976 406.383 38.34 406.383 38.748C406.383 39.156 406.467 39.524 406.635 39.852C406.803 40.172 407.031 40.424 407.319 40.608C407.615 40.792 407.947 40.884 408.315 40.884C408.707 40.884 409.047 40.784 409.335 40.584C409.631 40.376 409.851 40.1 409.995 39.756L411.183 40.32C411.055 40.664 410.847 40.976 410.559 41.256C410.279 41.528 409.947 41.744 409.563 41.904C409.179 42.064 408.763 42.144 408.315 42.144ZM415.641 42.144C415.017 42.144 414.445 41.996 413.925 41.7C413.413 41.404 413.005 41 412.701 40.488C412.397 39.976 412.245 39.396 412.245 38.748C412.245 38.092 412.397 37.512 412.701 37.008C413.005 36.496 413.413 36.096 413.925 35.808C414.437 35.512 415.009 35.364 415.641 35.364C416.281 35.364 416.853 35.512 417.357 35.808C417.869 36.096 418.273 36.496 418.569 37.008C418.873 37.512 419.025 38.092 419.025 38.748C419.025 39.404 418.873 39.988 418.569 40.5C418.265 41.012 417.857 41.416 417.345 41.712C416.833 42 416.265 42.144 415.641 42.144ZM415.641 40.884C416.025 40.884 416.365 40.792 416.661 40.608C416.957 40.424 417.189 40.172 417.357 39.852C417.533 39.524 417.621 39.156 417.621 38.748C417.621 38.34 417.533 37.976 417.357 37.656C417.189 37.336 416.957 37.084 416.661 36.9C416.365 36.716 416.025 36.624 415.641 36.624C415.265 36.624 414.925 36.716 414.621 36.9C414.325 37.084 414.089 37.336 413.913 37.656C413.745 37.976 413.661 38.34 413.661 38.748C413.661 39.156 413.745 39.524 413.913 39.852C414.089 40.172 414.325 40.424 414.621 40.608C414.925 40.792 415.265 40.884 415.641 40.884ZM423.349 42.144C422.725 42.144 422.165 41.996 421.669 41.7C421.181 41.396 420.793 40.988 420.505 40.476C420.225 39.964 420.085 39.388 420.085 38.748C420.085 38.108 420.229 37.532 420.517 37.02C420.805 36.508 421.193 36.104 421.681 35.808C422.169 35.512 422.721 35.364 423.337 35.364C423.857 35.364 424.317 35.468 424.717 35.676C425.117 35.884 425.433 36.172 425.665 36.54L425.461 36.852V32.916H426.805V42H425.521V40.68L425.677 40.932C425.453 41.324 425.133 41.624 424.717 41.832C424.301 42.04 423.845 42.144 423.349 42.144ZM423.481 40.884C423.857 40.884 424.193 40.792 424.489 40.608C424.793 40.424 425.029 40.172 425.197 39.852C425.373 39.524 425.461 39.156 425.461 38.748C425.461 38.34 425.373 37.976 425.197 37.656C425.029 37.336 424.793 37.084 424.489 36.9C424.193 36.716 423.857 36.624 423.481 36.624C423.105 36.624 422.765 36.716 422.461 36.9C422.157 37.084 421.921 37.336 421.753 37.656C421.585 37.976 421.501 38.34 421.501 38.748C421.501 39.156 421.585 39.524 421.753 39.852C421.921 40.172 422.153 40.424 422.449 40.608C422.753 40.792 423.097 40.884 423.481 40.884ZM431.436 42.144C430.788 42.144 430.212 41.996 429.708 41.7C429.212 41.396 428.824 40.988 428.544 40.476C428.264 39.956 428.124 39.376 428.124 38.736C428.124 38.08 428.264 37.5 428.544 36.996C428.832 36.492 429.216 36.096 429.696 35.808C430.176 35.512 430.72 35.364 431.328 35.364C431.816 35.364 432.252 35.448 432.636 35.616C433.02 35.784 433.344 36.016 433.608 36.312C433.872 36.6 434.072 36.932 434.208 37.308C434.352 37.684 434.424 38.084 434.424 38.508C434.424 38.612 434.42 38.72 434.412 38.832C434.404 38.944 434.388 39.048 434.364 39.144H429.192V38.064H433.596L432.948 38.556C433.028 38.164 433 37.816 432.864 37.512C432.736 37.2 432.536 36.956 432.264 36.78C432 36.596 431.688 36.504 431.328 36.504C430.968 36.504 430.648 36.596 430.368 36.78C430.088 36.956 429.872 37.212 429.72 37.548C429.568 37.876 429.508 38.276 429.54 38.748C429.5 39.188 429.56 39.572 429.72 39.9C429.888 40.228 430.12 40.484 430.416 40.668C430.72 40.852 431.064 40.944 431.448 40.944C431.84 40.944 432.172 40.856 432.444 40.68C432.724 40.504 432.944 40.276 433.104 39.996L434.208 40.536C434.08 40.84 433.88 41.116 433.608 41.364C433.344 41.604 433.024 41.796 432.648 41.94C432.28 42.076 431.876 42.144 431.436 42.144ZM437.845 42V35.508H439.141V36.912L438.973 36.696C439.109 36.256 439.357 35.924 439.717 35.7C440.077 35.476 440.489 35.364 440.953 35.364C441.473 35.364 441.933 35.504 442.333 35.784C442.741 36.056 443.013 36.42 443.149 36.876L442.765 36.912C442.957 36.392 443.249 36.004 443.641 35.748C444.041 35.492 444.497 35.364 445.009 35.364C445.457 35.364 445.861 35.468 446.221 35.676C446.589 35.884 446.881 36.172 447.097 36.54C447.313 36.908 447.421 37.328 447.421 37.8V42H446.065V38.172C446.065 37.844 446.005 37.568 445.885 37.344C445.773 37.112 445.613 36.936 445.405 36.816C445.205 36.688 444.969 36.624 444.697 36.624C444.425 36.624 444.185 36.688 443.977 36.816C443.769 36.936 443.605 37.112 443.485 37.344C443.365 37.576 443.305 37.852 443.305 38.172V42H441.961V38.172C441.961 37.844 441.901 37.568 441.781 37.344C441.669 37.112 441.509 36.936 441.301 36.816C441.101 36.688 440.861 36.624 440.581 36.624C440.309 36.624 440.069 36.688 439.861 36.816C439.653 36.936 439.489 37.112 439.369 37.344C439.257 37.576 439.201 37.852 439.201 38.172V42H437.845ZM450.816 42.144C450.376 42.144 449.988 42.068 449.652 41.916C449.324 41.756 449.068 41.54 448.884 41.268C448.7 40.988 448.608 40.66 448.608 40.284C448.608 39.932 448.684 39.616 448.836 39.336C448.996 39.056 449.24 38.82 449.568 38.628C449.896 38.436 450.308 38.3 450.804 38.22L453.06 37.848V38.916L451.068 39.264C450.708 39.328 450.444 39.444 450.276 39.612C450.108 39.772 450.024 39.98 450.024 40.236C450.024 40.484 450.116 40.688 450.3 40.848C450.492 41 450.736 41.076 451.032 41.076C451.4 41.076 451.72 40.996 451.992 40.836C452.272 40.676 452.488 40.464 452.64 40.2C452.792 39.928 452.868 39.628 452.868 39.3V37.632C452.868 37.312 452.748 37.052 452.508 36.852C452.276 36.644 451.964 36.54 451.572 36.54C451.212 36.54 450.896 36.636 450.624 36.828C450.36 37.012 450.164 37.252 450.036 37.548L448.908 36.984C449.028 36.664 449.224 36.384 449.496 36.144C449.768 35.896 450.084 35.704 450.444 35.568C450.812 35.432 451.2 35.364 451.608 35.364C452.12 35.364 452.572 35.46 452.964 35.652C453.364 35.844 453.672 36.112 453.888 36.456C454.112 36.792 454.224 37.184 454.224 37.632V42H452.928V40.824L453.204 40.86C453.052 41.124 452.856 41.352 452.616 41.544C452.384 41.736 452.116 41.884 451.812 41.988C451.516 42.092 451.184 42.144 450.816 42.144ZM455.81 42V35.508H457.106V36.78L456.95 36.612C457.11 36.204 457.366 35.896 457.718 35.688C458.07 35.472 458.478 35.364 458.942 35.364C459.422 35.364 459.846 35.468 460.214 35.676C460.582 35.884 460.87 36.172 461.078 36.54C461.286 36.908 461.39 37.332 461.39 37.812V42H460.046V38.172C460.046 37.844 459.986 37.568 459.866 37.344C459.746 37.112 459.574 36.936 459.35 36.816C459.134 36.688 458.886 36.624 458.606 36.624C458.326 36.624 458.074 36.688 457.85 36.816C457.634 36.936 457.466 37.112 457.346 37.344C457.226 37.576 457.166 37.852 457.166 38.172V42H455.81ZM464.785 42.144C464.345 42.144 463.957 42.068 463.621 41.916C463.293 41.756 463.037 41.54 462.853 41.268C462.669 40.988 462.577 40.66 462.577 40.284C462.577 39.932 462.653 39.616 462.805 39.336C462.965 39.056 463.209 38.82 463.537 38.628C463.865 38.436 464.277 38.3 464.773 38.22L467.029 37.848V38.916L465.037 39.264C464.677 39.328 464.413 39.444 464.245 39.612C464.077 39.772 463.993 39.98 463.993 40.236C463.993 40.484 464.085 40.688 464.269 40.848C464.461 41 464.705 41.076 465.001 41.076C465.369 41.076 465.689 40.996 465.961 40.836C466.241 40.676 466.457 40.464 466.609 40.2C466.761 39.928 466.837 39.628 466.837 39.3V37.632C466.837 37.312 466.717 37.052 466.477 36.852C466.245 36.644 465.933 36.54 465.541 36.54C465.181 36.54 464.865 36.636 464.593 36.828C464.329 37.012 464.133 37.252 464.005 37.548L462.877 36.984C462.997 36.664 463.193 36.384 463.465 36.144C463.737 35.896 464.053 35.704 464.413 35.568C464.781 35.432 465.169 35.364 465.577 35.364C466.089 35.364 466.541 35.46 466.933 35.652C467.333 35.844 467.641 36.112 467.857 36.456C468.081 36.792 468.193 37.184 468.193 37.632V42H466.897V40.824L467.173 40.86C467.021 41.124 466.825 41.352 466.585 41.544C466.353 41.736 466.085 41.884 465.781 41.988C465.485 42.092 465.153 42.144 464.785 42.144ZM472.91 44.64C472.438 44.64 472.002 44.564 471.602 44.412C471.202 44.26 470.858 44.048 470.57 43.776C470.282 43.512 470.066 43.2 469.922 42.84L471.17 42.324C471.282 42.628 471.486 42.88 471.782 43.08C472.086 43.28 472.458 43.38 472.898 43.38C473.242 43.38 473.55 43.312 473.822 43.176C474.094 43.048 474.31 42.856 474.47 42.6C474.63 42.352 474.71 42.052 474.71 41.7V40.236L474.95 40.512C474.726 40.928 474.414 41.244 474.014 41.46C473.622 41.676 473.178 41.784 472.682 41.784C472.082 41.784 471.542 41.644 471.062 41.364C470.582 41.084 470.202 40.7 469.922 40.212C469.65 39.724 469.514 39.176 469.514 38.568C469.514 37.952 469.65 37.404 469.922 36.924C470.202 36.444 470.578 36.064 471.05 35.784C471.522 35.504 472.062 35.364 472.67 35.364C473.166 35.364 473.606 35.472 473.99 35.688C474.382 35.896 474.702 36.2 474.95 36.6L474.77 36.936V35.508H476.054V41.7C476.054 42.26 475.918 42.76 475.646 43.2C475.382 43.648 475.014 44 474.542 44.256C474.07 44.512 473.526 44.64 472.91 44.64ZM472.838 40.524C473.198 40.524 473.518 40.44 473.798 40.272C474.078 40.096 474.298 39.864 474.458 39.576C474.626 39.28 474.71 38.948 474.71 38.58C474.71 38.212 474.626 37.88 474.458 37.584C474.29 37.288 474.066 37.056 473.786 36.888C473.506 36.712 473.19 36.624 472.838 36.624C472.47 36.624 472.142 36.712 471.854 36.888C471.566 37.056 471.338 37.288 471.17 37.584C471.01 37.872 470.93 38.204 470.93 38.58C470.93 38.94 471.01 39.268 471.17 39.564C471.338 39.86 471.566 40.096 471.854 40.272C472.142 40.44 472.47 40.524 472.838 40.524ZM480.69 42.144C480.042 42.144 479.466 41.996 478.962 41.7C478.466 41.396 478.078 40.988 477.798 40.476C477.518 39.956 477.378 39.376 477.378 38.736C477.378 38.08 477.518 37.5 477.798 36.996C478.086 36.492 478.47 36.096 478.95 35.808C479.43 35.512 479.974 35.364 480.582 35.364C481.07 35.364 481.506 35.448 481.89 35.616C482.274 35.784 482.598 36.016 482.862 36.312C483.126 36.6 483.326 36.932 483.462 37.308C483.606 37.684 483.678 38.084 483.678 38.508C483.678 38.612 483.674 38.72 483.666 38.832C483.658 38.944 483.642 39.048 483.618 39.144H478.446V38.064H482.85L482.202 38.556C482.282 38.164 482.254 37.816 482.118 37.512C481.99 37.2 481.79 36.956 481.518 36.78C481.254 36.596 480.942 36.504 480.582 36.504C480.222 36.504 479.902 36.596 479.622 36.78C479.342 36.956 479.126 37.212 478.974 37.548C478.822 37.876 478.762 38.276 478.794 38.748C478.754 39.188 478.814 39.572 478.974 39.9C479.142 40.228 479.374 40.484 479.67 40.668C479.974 40.852 480.318 40.944 480.702 40.944C481.094 40.944 481.426 40.856 481.698 40.68C481.978 40.504 482.198 40.276 482.358 39.996L483.462 40.536C483.334 40.84 483.134 41.116 482.862 41.364C482.598 41.604 482.278 41.796 481.902 41.94C481.534 42.076 481.13 42.144 480.69 42.144ZM485.001 42V35.508H486.297V36.912L486.129 36.696C486.265 36.256 486.513 35.924 486.873 35.7C487.233 35.476 487.645 35.364 488.109 35.364C488.629 35.364 489.089 35.504 489.489 35.784C489.897 36.056 490.169 36.42 490.305 36.876L489.921 36.912C490.113 36.392 490.405 36.004 490.797 35.748C491.197 35.492 491.653 35.364 492.165 35.364C492.613 35.364 493.017 35.468 493.377 35.676C493.745 35.884 494.037 36.172 494.253 36.54C494.469 36.908 494.577 37.328 494.577 37.8V42H493.221V38.172C493.221 37.844 493.161 37.568 493.041 37.344C492.929 37.112 492.769 36.936 492.561 36.816C492.361 36.688 492.125 36.624 491.853 36.624C491.581 36.624 491.341 36.688 491.133 36.816C490.925 36.936 490.761 37.112 490.641 37.344C490.521 37.576 490.461 37.852 490.461 38.172V42H489.117V38.172C489.117 37.844 489.057 37.568 488.937 37.344C488.825 37.112 488.665 36.936 488.457 36.816C488.257 36.688 488.017 36.624 487.737 36.624C487.465 36.624 487.225 36.688 487.017 36.816C486.809 36.936 486.645 37.112 486.525 37.344C486.413 37.576 486.357 37.852 486.357 38.172V42H485.001ZM499.076 42.144C498.428 42.144 497.852 41.996 497.348 41.7C496.852 41.396 496.464 40.988 496.184 40.476C495.904 39.956 495.764 39.376 495.764 38.736C495.764 38.08 495.904 37.5 496.184 36.996C496.472 36.492 496.856 36.096 497.336 35.808C497.816 35.512 498.36 35.364 498.968 35.364C499.456 35.364 499.892 35.448 500.276 35.616C500.66 35.784 500.984 36.016 501.248 36.312C501.512 36.6 501.712 36.932 501.848 37.308C501.992 37.684 502.064 38.084 502.064 38.508C502.064 38.612 502.06 38.72 502.052 38.832C502.044 38.944 502.028 39.048 502.004 39.144H496.832V38.064H501.236L500.588 38.556C500.668 38.164 500.64 37.816 500.504 37.512C500.376 37.2 500.176 36.956 499.904 36.78C499.64 36.596 499.328 36.504 498.968 36.504C498.608 36.504 498.288 36.596 498.008 36.78C497.728 36.956 497.512 37.212 497.36 37.548C497.208 37.876 497.148 38.276 497.18 38.748C497.14 39.188 497.2 39.572 497.36 39.9C497.528 40.228 497.76 40.484 498.056 40.668C498.36 40.852 498.704 40.944 499.088 40.944C499.48 40.944 499.812 40.856 500.084 40.68C500.364 40.504 500.584 40.276 500.744 39.996L501.848 40.536C501.72 40.84 501.52 41.116 501.248 41.364C500.984 41.604 500.664 41.796 500.288 41.94C499.92 42.076 499.516 42.144 499.076 42.144ZM503.388 42V35.508H504.684V36.78L504.528 36.612C504.688 36.204 504.944 35.896 505.296 35.688C505.648 35.472 506.056 35.364 506.52 35.364C507 35.364 507.424 35.468 507.792 35.676C508.16 35.884 508.448 36.172 508.656 36.54C508.864 36.908 508.968 37.332 508.968 37.812V42H507.624V38.172C507.624 37.844 507.564 37.568 507.444 37.344C507.324 37.112 507.152 36.936 506.928 36.816C506.712 36.688 506.464 36.624 506.184 36.624C505.904 36.624 505.652 36.688 505.428 36.816C505.212 36.936 505.044 37.112 504.924 37.344C504.804 37.576 504.744 37.852 504.744 38.172V42H503.388ZM513.227 42.072C512.547 42.072 512.019 41.88 511.643 41.496C511.267 41.112 511.079 40.572 511.079 39.876V36.732H509.939V35.508H510.119C510.423 35.508 510.659 35.42 510.827 35.244C510.995 35.068 511.079 34.828 511.079 34.524V34.02H512.435V35.508H513.911V36.732H512.435V39.816C512.435 40.04 512.471 40.232 512.543 40.392C512.615 40.544 512.731 40.664 512.891 40.752C513.051 40.832 513.259 40.872 513.515 40.872C513.579 40.872 513.651 40.868 513.731 40.86C513.811 40.852 513.887 40.844 513.959 40.836V42C513.847 42.016 513.723 42.032 513.587 42.048C513.451 42.064 513.331 42.072 513.227 42.072ZM514.862 43.92C515.438 43.08 515.87 42.204 516.158 41.292C516.446 40.372 516.59 39.436 516.59 38.484C516.59 37.524 516.446 36.592 516.158 35.688C515.87 34.776 515.438 33.9 514.862 33.06H516.002C516.666 33.812 517.166 34.644 517.502 35.556C517.838 36.468 518.006 37.444 518.006 38.484C518.006 39.516 517.838 40.488 517.502 41.4C517.166 42.312 516.666 43.152 516.002 43.92H514.862Z" fill="#0066F5"/>
<rect x="744" y="20" width="36" height="36" rx="18" fill="#0066F5"/>
<path d="M762.125 34.5756V31.7857C760.81 30.7924 759.192 30.2852 757.27 30.2852C753.123 30.2852 749.785 33.7724 749.785 37.9994C749.785 42.2264 753.123 45.7137 757.27 45.7137C759.192 45.7137 760.816 45.215 762.125 44.2131C762.816 43.6841 763.379 43.1198 763.862 42.5368C764.937 41.2376 765.617 39.8453 766.438 38.5424C766.908 37.9016 767.637 37.5133 768.514 37.5133C770.051 37.5133 771.143 38.7392 771.143 40.43C771.143 42.1208 770.051 43.3466 768.514 43.3466C767.631 43.3466 766.811 42.8059 766.357 42.3191L766.239 42.3023C766.136 42.4738 765.859 42.9297 765.645 43.2304C765.435 43.5249 765.1 43.929 764.965 44.091L765.006 44.266C765.909 45.1668 767.14 45.7137 768.514 45.7137C771.346 45.7137 773.571 43.3889 773.571 40.43C773.571 37.4711 771.346 35.1462 768.514 35.1462C766.712 35.1462 765.155 36.0875 764.262 37.5345C764.232 37.5847 764.202 37.635 764.173 37.6856C764.112 37.7971 764.054 37.911 763.994 38.024C763.64 38.689 762.777 40.2437 761.977 41.1591C760.939 42.3469 759.07 43.1353 757.27 43.1353C754.6 43.1353 752.455 40.8527 752.455 37.9994C752.455 35.1462 754.6 32.8636 757.27 32.8636C759.07 32.8636 760.709 33.5188 762.024 34.6812L762.125 34.5756Z" fill="white"/>
</g>
<defs>
<filter id="filter0_d_5950_2245" x="14" y="16" width="262" height="47" filterUnits="userSpaceOnUse" color-interpolation-filters="sRGB">
<feFlood flood-opacity="0" result="BackgroundImageFix"/>
<feColorMatrix in="SourceAlpha" type="matrix" values="0 0 0 0 0 0 0 0 0 0 0 0 0 0 0 0 0 0 127 0" result="hardAlpha"/>
<feOffset dy="2"/>
<feGaussianBlur stdDeviation="3"/>
<feComposite in2="hardAlpha" operator="out"/>
<feColorMatrix type="matrix" values="0 0 0 0 0.0431373 0 0 0 0 0.0431373 0 0 0 0 0.054902 0 0 0 0.08 0"/>
<feBlend mode="normal" in2="BackgroundImageFix" result="effect1_dropShadow_5950_2245"/>
<feBlend mode="normal" in="SourceGraphic" in2="effect1_dropShadow_5950_2245" result="shape"/>
</filter>
<filter id="filter1_d_5950_2245" x="304" y="16" width="245" height="47" filterUnits="userSpaceOnUse" color-interpolation-filters="sRGB">
<feFlood flood-opacity="0" result="BackgroundImageFix"/>
<feColorMatrix in="SourceAlpha" type="matrix" values="0 0 0 0 0 0 0 0 0 0 0 0 0 0 0 0 0 0 127 0" result="hardAlpha"/>
<feOffset dy="2"/>
<feGaussianBlur stdDeviation="3"/>
<feComposite in2="hardAlpha" operator="out"/>
<feColorMatrix type="matrix" values="0 0 0 0 0.0431373 0 0 0 0 0.0431373 0 0 0 0 0.054902 0 0 0 0.08 0"/>
<feBlend mode="normal" in2="BackgroundImageFix" result="effect1_dropShadow_5950_2245"/>
<feBlend mode="normal" in="SourceGraphic" in2="effect1_dropShadow_5950_2245" result="shape"/>
</filter>
</defs>
</svg>
