<svg width="86" height="24" viewBox="0 0 86 24" fill="none" xmlns="http://www.w3.org/2000/svg">
<path d="M30.8233 6L30.7008 6.12245V17.3878L30.8233 17.5102H33.4192L33.5416 17.3878V9.6C34.2029 8.84082 35.3294 8.37551 36.4559 8.37551C38.2927 8.37551 39.2723 9.37959 39.2723 11.3388V17.3878L39.3947 17.5102H41.9906L42.1131 17.3878V11.0204C42.1131 7.71429 40.2763 5.63265 36.6029 5.63265C35.5008 5.63265 34.3988 6 33.5416 6.4898V6.12245L33.4192 6H30.8233Z" fill="currentColor"/>
<path d="M44.2341 6L44.1117 6.09796V8.74286L44.2341 8.86531H46.0709V17.3878L46.1933 17.5102H48.8137L48.9362 17.3878V8.86531H53.2219L53.3443 8.74286V6.12245L53.2219 6H48.9362V5.58367C48.9362 3.72245 49.6953 2.74286 51.1892 2.74286C51.8749 2.74286 52.4872 2.8898 53.2219 3.47755L53.3443 3.3551V0.489795C52.6096 0.146938 51.9974 0 51.0668 0C47.8831 0 46.0709 2.17959 46.0709 5.46123V6H44.2341Z" fill="currentColor"/>
<path d="M55.7196 6L55.5972 6.12245V17.3878L55.7196 17.5102H58.3156L58.438 17.3878V6.12245L58.3156 6H55.7196ZM56.8951 1.10204L55.1074 2.86531V3.1102L56.8951 4.89796H57.14L58.9278 3.1102V2.86531L57.14 1.10204H56.8951Z" fill="currentColor"/>
<path fill-rule="evenodd" clip-rule="evenodd" d="M68.1547 6C67.5914 5.77959 66.9547 5.63265 66.318 5.63265C63.7466 5.63265 61.6649 7.66531 61.6649 10.1633C61.6649 11.4612 62.1057 12.4408 62.9874 13.298C62.3017 13.8367 61.9343 14.5224 61.9343 15.2327C61.9343 16.0898 62.3751 16.6286 62.8649 16.9959C61.3955 17.8776 60.3914 19.0286 60.3914 20.3755C60.3914 23.0694 63.1343 24 66.5629 24C69.9914 24 72.2445 22.5061 72.2445 20.2041C72.2445 15.4531 64.7262 16.2612 64.7262 14.9143C64.7262 14.6694 64.8486 14.5469 64.971 14.4245C65.3384 14.5959 65.8282 14.6939 66.318 14.6939C69.0363 14.6939 70.971 12.7102 70.971 10.1633C70.971 9.62449 70.8486 9.13469 70.6772 8.6449H73.9588V12.4898C73.9588 15.7959 75.7955 17.8776 79.469 17.8776C80.571 17.8776 81.6731 17.5102 82.5302 17.0204V17.3878L82.6527 17.5102H85.2486L85.371 17.3878V6.12245L85.2486 6H82.6527L82.5302 6.12245V13.9102C81.869 14.6694 80.7425 15.1347 79.6159 15.1347C77.7792 15.1347 76.7996 14.1306 76.7996 12.1714V6.12245L76.6772 6H68.1547ZM69.3057 20.1061C69.3057 18.9705 67.3844 18.4854 65.9675 18.1276C65.5816 18.0302 65.2331 17.9422 64.971 17.8531C64.1874 18.3429 63.3302 19.1755 63.3302 20.1796C63.3302 20.9878 64.2608 21.4776 66.5629 21.4776C68.4486 21.4776 69.3057 20.8653 69.3057 20.1061ZM68.2772 10.1633C68.2772 9.06122 67.42 8.1551 66.318 8.1551C65.2159 8.1551 64.3588 9.06122 64.3588 10.1633C64.3588 11.2653 65.2159 12.1714 66.318 12.1714C67.42 12.1714 68.2772 11.2653 68.2772 10.1633Z" fill="currentColor"/>
<path d="M14.9388 4.97143V1.73877C13.3469 0.587755 11.3878 0 9.06122 0C4.04082 0 0 4.04082 0 8.93878C0 13.8367 4.04082 17.8776 9.06122 17.8776C11.3878 17.8776 13.3541 17.2996 14.9388 16.1388C15.7755 15.5258 16.4567 14.8719 17.0412 14.1963C18.3437 12.6909 19.1661 11.0776 20.16 9.56791C20.7291 8.82535 21.6119 8.37551 22.6731 8.37551C24.5344 8.37551 25.8568 9.79592 25.8568 11.7551C25.8568 13.7143 24.5344 15.1347 22.6731 15.1347C21.6047 15.1347 20.6115 14.5082 20.0619 13.9441L19.92 13.9246C19.7953 14.1234 19.4596 14.6516 19.2 15C18.9456 15.3413 18.5411 15.8095 18.377 15.9972L18.4265 16.2C19.5202 17.2439 21.0103 17.8776 22.6731 17.8776C26.1017 17.8776 28.7956 15.1837 28.7956 11.7551C28.7956 8.32653 26.1017 5.63265 22.6731 5.63265C20.4915 5.63265 18.6074 6.72335 17.5255 8.4C17.4895 8.45822 17.4538 8.51651 17.4188 8.57513C17.344 8.70435 17.2743 8.83633 17.2015 8.96724C16.7732 9.73777 15.7282 11.5393 14.76 12.6C13.5037 13.9763 11.2408 14.8898 9.06122 14.8898C5.82857 14.8898 3.23265 12.2449 3.23265 8.93878C3.23265 5.63265 5.82857 2.98775 9.06122 2.98775C11.2408 2.98775 13.2245 3.74694 14.8163 5.09388L14.9388 4.97143Z" fill="currentColor"/>
</svg>
