<svg width="26" height="26" fill="none" xmlns="http://www.w3.org/2000/svg"><path d="M21.675 5.52c2.754 3.923 4.115 8.348 3.606 13.441a.076.076 0 0 1-.032.055 20.418 20.418 0 0 1-6.098 2.98.08.08 0 0 1-.086-.027c-.46-.62-.879-1.275-1.245-1.962a.075.075 0 0 1 .041-.105 12.641 12.641 0 0 0 1.904-.877.074.074 0 0 0 .006-.125 9.678 9.678 0 0 1-.379-.288.076.076 0 0 0-.08-.01c-3.943 1.765-8.264 1.765-12.255 0a.078.078 0 0 0-.079.01c-.121.098-.25.195-.377.288a.074.074 0 0 0 .007.125c.608.338 1.24.635 1.903.878a.074.074 0 0 1 .042.104 13.952 13.952 0 0 1-1.246 1.962.08.08 0 0 1-.085.028 20.484 20.484 0 0 1-6.09-2.981.08.08 0 0 1-.031-.055c-.425-4.407.44-8.868 3.602-13.442a.07.07 0 0 1 .033-.027A20.54 20.54 0 0 1 9.7 4.002a.08.08 0 0 1 .08.036c.215.369.46.842.627 1.23 1.836-.272 3.7-.272 5.575 0 .166-.38.404-.861.618-1.23a.074.074 0 0 1 .034-.031.078.078 0 0 1 .046-.006c1.743.292 3.41.8 4.964 1.491a.06.06 0 0 1 .031.028ZM11.34 13.898c.02-1.303-.96-2.38-2.191-2.38-1.22 0-2.192 1.068-2.192 2.38 0 1.311.99 2.38 2.192 2.38 1.22 0 2.192-1.069 2.192-2.38Zm8.103 0c.02-1.303-.96-2.38-2.191-2.38-1.22 0-2.192 1.068-2.192 2.38 0 1.311.99 2.38 2.192 2.38 1.23 0 2.191-1.069 2.191-2.38Z" fill="#5865F2"/></svg>