<svg width="26" height="26" fill="none" xmlns="http://www.w3.org/2000/svg"><path d="M13 .4C6.097.4.5 6.138.5 13.216c0 5.663 3.582 10.467 8.548 12.162.625.119.854-.278.854-.617 0-.305-.011-1.315-.017-2.386-3.477.776-4.211-1.512-4.211-1.512-.569-1.481-1.388-1.875-1.388-1.875-1.134-.796.086-.78.086-.78 1.255.091 1.916 1.321 1.916 1.321 1.115 1.96 2.924 1.393 3.637 1.066.112-.829.436-1.394.794-1.714-2.776-.324-5.695-1.423-5.695-6.334 0-1.4.488-2.543 1.288-3.44-.13-.323-.558-1.626.12-3.392 0 0 1.05-.344 3.44 1.314A11.697 11.697 0 0 1 13 6.598c1.062.005 2.133.147 3.131.431 2.386-1.658 3.435-1.314 3.435-1.314.68 1.766.252 3.07.122 3.392.802.898 1.287 2.04 1.287 3.44 0 4.923-2.925 6.007-5.708 6.324.448.398.848 1.178.848 2.373 0 1.715-.015 3.095-.015 3.517 0 .341.225.741.859.615 4.964-1.696 8.541-6.499 8.541-12.16C25.5 6.138 19.903.4 13 .4Z" fill="#0B0B0E"/></svg>