<svg width="20" height="19" fill="none" xmlns="http://www.w3.org/2000/svg"><g clip-path="url(#a)"><path d="M0 2.207C0 1.567.225 1.04.676.624 1.126.208 1.712 0 2.432 0c.708 0 1.281.205 1.719.614.45.422.675.973.675 1.65 0 .615-.219 1.127-.656 1.536-.45.422-1.043.633-1.776.633h-.02c-.707 0-1.28-.21-1.718-.633C.22 3.378 0 2.847 0 2.207ZM.251 19V6.18h4.286V19H.25Zm6.66 0h4.286v-7.159c0-.447.051-.793.154-1.036.18-.435.454-.803.82-1.103.368-.301.828-.451 1.381-.451 1.442 0 2.162.966 2.162 2.898V19H20v-7.35c0-1.894-.45-3.33-1.351-4.309-.901-.979-2.092-1.468-3.572-1.468-1.66 0-2.953.71-3.88 2.13v.038h-.02l.02-.038V6.18H6.91c.026.41.039 1.682.039 3.819S6.937 15.136 6.91 19Z" fill="#0A66C2"/></g><defs><clipPath id="a"><path fill="#fff" d="M0 0h20v19H0z"/></clipPath></defs></svg>