<svg width="24" height="24" fill="none" xmlns="http://www.w3.org/2000/svg"><path d="M15.034 18.958c1.33 0 2.416 1.133 2.416 2.52 0 1.388-1.086 2.522-2.416 2.522-1.33 0-2.416-1.134-2.416-2.521v-2.521h2.416ZM15.034 17.687c-1.33 0-2.416-1.133-2.416-2.52 0-1.389 1.086-2.522 2.416-2.522h6.05c1.33 0 2.416 1.133 2.416 2.521s-1.086 2.521-2.416 2.521h-6.05Z" fill="#ECB22E"/><path d="M17.45 8.834c0 1.388-1.086 2.521-2.416 2.521-1.33 0-2.416-1.133-2.416-2.521V2.52C12.618 1.134 13.704 0 15.034 0c1.33 0 2.416 1.134 2.416 2.521v6.313ZM18.668 8.834c0-1.388 1.086-2.521 2.416-2.521 1.33 0 2.416 1.133 2.416 2.52 0 1.389-1.086 2.522-2.416 2.522h-2.416V8.834Z" fill="#2EB67D"/><path d="M8.966 5.042c-1.33 0-2.416-1.133-2.416-2.52C6.55 1.133 7.636 0 8.966 0c1.33 0 2.416 1.134 2.416 2.521v2.521H8.966Z" fill="#36C5F0"/><path fill-rule="evenodd" clip-rule="evenodd" d="M5.332 15.166c0 1.388-1.086 2.521-2.416 2.521-1.33 0-2.416-1.133-2.416-2.52 0-1.389 1.086-2.522 2.416-2.522h2.416v2.521Zm1.218 0c0-1.388 1.086-2.521 2.416-2.521 1.33 0 2.416 1.133 2.416 2.521v6.313c0 1.387-1.086 2.521-2.416 2.521-1.33 0-2.416-1.134-2.416-2.521v-6.313Z" fill="#E01E5A"/><path d="M8.966 6.313c1.33 0 2.416 1.133 2.416 2.52 0 1.389-1.086 2.522-2.416 2.522h-6.05C1.586 11.355.5 10.222.5 8.834s1.086-2.521 2.416-2.521h6.05Z" fill="#36C5F0"/></svg>