<svg width="24" height="24" fill="none" xmlns="http://www.w3.org/2000/svg"><path d="M8.076 22c8.491 0 13.134-6.924 13.134-12.929 0-.197-.004-.392-.013-.587A9.307 9.307 0 0 0 23.5 6.13a9.317 9.317 0 0 1-2.65.715 4.574 4.574 0 0 0 2.029-2.513 9.348 9.348 0 0 1-2.931 1.103A4.645 4.645 0 0 0 16.578 4c-2.55 0-4.616 2.035-4.616 4.543 0 .357.04.704.12 1.037a13.178 13.178 0 0 1-9.516-4.748 4.478 4.478 0 0 0-.625 2.284c0 1.576.815 2.968 2.054 3.782a4.639 4.639 0 0 1-2.09-.568l-.001.058c0 2.2 1.59 4.038 3.703 4.454a4.695 4.695 0 0 1-2.085.078c.588 1.806 2.292 3.12 4.313 3.156A9.355 9.355 0 0 1 2.1 20.021c-.372 0-.74-.02-1.101-.062a13.218 13.218 0 0 0 7.076 2.04" fill="#1EA1F1"/></svg>